<?xml version="1.0" encoding="UTF-8"?>
<svg version="1.1" xmlns="http://www.w3.org/2000/svg" width="2000" height="2250">
<path d="M0 0 C2.54746766 0.31625588 5.09532499 0.62917026 7.64331055 0.94122314 C18.14749826 2.23131702 28.6422582 3.58556736 39.13146973 4.99212646 C41.65046129 5.32947477 44.16982696 5.66393358 46.68920898 5.99835205 C121.00008399 15.90799323 193.67398707 33.27607605 264.41870117 58.13604736 C265.16131195 58.39682068 265.90392273 58.65759399 266.66903687 58.92626953 C277.73922872 62.82840968 288.68645109 67.01979176 299.60620117 71.32354736 C297.53782073 67.68391901 296.29153121 65.72525082 292.41870117 64.01104736 C291.70327148 63.68491455 290.9878418 63.35878174 290.25073242 63.02276611 C289.43668945 62.67665283 289.43668945 62.67665283 288.60620117 62.32354736 C292.65001514 60.97560937 294.23063772 62.08735626 298.16870117 63.64776611 C298.82346436 63.90496429 299.47822754 64.16216248 300.15283203 64.42715454 C302.3082572 65.27803857 304.45736192 66.14367735 306.60620117 67.01104736 C308.1061708 67.61000039 309.60617112 68.20887655 311.10620117 68.80767822 C350.99529458 84.81288818 389.9922986 103.60729943 426.88061523 125.69317627 C429.46788841 127.24081244 432.06296085 128.77435213 434.66088867 130.30401611 C453.51003393 141.44658049 472.02782333 153.16031848 489.76977539 166.00030518 C491.50975979 167.25405623 493.26007313 168.49120698 495.01635742 169.72198486 C505.77628712 177.2814446 516.19264689 185.29677972 526.60620117 193.32354736 C527.29842773 193.85689697 527.9906543 194.39024658 528.70385742 194.9397583 C536.14006902 200.68488071 543.391061 206.61033955 550.53198242 212.71807861 C553.30319272 215.08218924 556.13547307 217.36198694 558.98120117 219.63604736 C564.25446204 223.92105436 569.20002057 228.51658749 574.12915039 233.18804932 C577.06636605 235.96960608 580.02371105 238.69415745 583.10522461 241.31549072 C588.75353251 246.24654996 594.00452539 251.57764099 599.29760742 256.88214111 C600.41269128 257.99654955 601.5279234 259.11080966 602.64329529 260.22492981 C604.96873879 262.54890757 607.29238628 264.874662 609.61474609 267.20172119 C612.5720802 270.16475187 615.53388245 273.12326906 618.49705601 276.08045864 C620.79730715 278.37707369 623.09514348 280.67609302 625.3922863 282.97581673 C626.48265414 284.06684542 627.57374797 285.15714913 628.6656208 286.24667168 C634.52724907 292.09844519 640.23163625 298.01782718 645.60620117 304.32354736 C647.22587934 306.09924957 648.85031835 307.87063044 650.48120117 309.63604736 C654.57180677 314.12152288 658.4543796 318.7293528 662.26635742 323.45245361 C664.34339931 326.00107763 666.45568587 328.510603 668.59155273 331.00958252 C674.80998456 338.28772602 680.75556169 345.74783355 686.60620117 353.32354736 C687.21125488 354.10262451 687.81630859 354.88170166 688.43969727 355.68438721 C696.83399887 366.50515028 704.91927634 377.45378686 712.54370117 388.83135986 C714.78011288 392.15520452 717.10830415 395.39657578 719.48120117 398.62432861 C723.71941476 404.42070897 727.68964274 410.368903 731.60620117 416.38604736 C731.96825653 416.94157288 732.33031189 417.49709839 732.70333862 418.06945801 C756.89003644 455.21718749 780.03099459 493.90273218 798.171875 534.43609619 C800.37656513 539.25538449 802.25848294 543.16218325 806.60620117 546.32354736 C809.23022164 545.99366452 809.23022164 545.99366452 811.60620117 545.32354736 C847.69662062 623.53170682 873.96028548 705.18121161 902.92425919 960.16838074 C902.91861283 963.11972101 902.91579616 966.07105553 902.91317749 969.0223999 C902.87750435 996.68416123 902.61403305 1024.22908091 899.85943604 1051.777771 C899.59289779 1054.45728655 899.33885028 1057.1378075 899.08618164 1059.81866455 C892.13983513 1132.67315116 877.43824122 1204.77524204 854.60620117 1274.32354736 C854.1183497 1275.82011032 853.63055661 1277.31669232 853.14282227 1278.81329346 C843.05304815 1309.65884325 831.12973605 1339.82037131 817.60620117 1369.32354736 C817.17531189 1370.26396881 817.17531189 1370.26396881 816.73571777 1371.22338867 C791.96822983 1425.20807755 763.02966699 1476.85881562 728.60620117 1525.32354736 C728.00855957 1526.16498291 727.41091797 1527.00641846 726.79516602 1527.87335205 C719.92836747 1537.51346609 712.90227952 1547.00399245 705.60620117 1556.32354736 C704.69079461 1557.49799381 703.77543135 1558.67247401 702.86010742 1559.84698486 C694.1648599 1570.98106961 685.20335282 1581.87825535 676.04321289 1592.63214111 C674.61221116 1594.31647343 673.18883083 1596.00701016 671.76635742 1597.69854736 C665.25597893 1605.40733731 658.48305274 1612.82333497 651.53979492 1620.14385986 C648.52915931 1623.31903249 645.58876569 1626.55169659 642.65307617 1629.79620361 C636.16776547 1636.91719328 629.36351896 1643.71710592 622.54394531 1650.51617432 C620.4079276 1652.64679371 618.27735999 1654.78275959 616.1472168 1656.91925049 C614.76537611 1658.30043086 613.3832255 1659.68130125 612.00073242 1661.06182861 C611.37656937 1661.6880159 610.75240631 1662.31420319 610.10932922 1662.95936584 C606.34957252 1666.69951912 602.47660301 1670.25502163 598.4552002 1673.71266174 C595.31491686 1676.44854057 592.31600915 1679.33389005 589.29370117 1682.19854736 C584.06671457 1687.11848509 578.74757255 1691.77729419 573.13745117 1696.25714111 C570.60481964 1698.32467519 568.19888957 1700.48468077 565.79370117 1702.69854736 C561.41919291 1706.68038323 556.86091043 1710.34096819 552.18969727 1713.96246338 C548.37305549 1716.9240022 544.614084 1719.94314566 540.88647461 1723.01593018 C532.12917777 1730.22603214 523.0910962 1736.99297537 513.9074707 1743.64874268 C511.81646261 1745.17052451 509.73853474 1746.70805414 507.66479492 1748.25323486 C434.18003934 1802.64453107 351.52086089 1845.85092634 112.81323242 1915.42901611 C108.27666811 1916.20464451 103.74478371 1917.00506746 99.2134552 1917.81065369 C63.0180758 1924.23764186 26.37484576 1930.51372205 -10.39379883 1932.32354736 C-12.19445801 1932.41394287 -12.19445801 1932.41394287 -14.03149414 1932.50616455 C-40.42175756 1933.75466512 -65.34862522 1932.74722912 -91.39379883 1928.32354736 C-111.00675721 1925.02477677 -130.66318383 1922.36434219 -150.39691162 1919.90768433 C-230.98130186 1909.87005701 -307.98514833 1890.47371401 -572.39379883 1750.32354736 C-573.78791992 1749.20399658 -573.78791992 1749.20399658 -575.21020508 1748.06182861 C-630.85195209 1702.94908759 -630.85195209 1702.94908759 -635.39379883 1689.32354736 C-636.72394248 1688.65053912 -638.05826531 1687.98579539 -639.39379883 1687.32354736 C-641.75282928 1685.50926518 -643.97335912 1683.53975562 -646.20629883 1681.57354736 C-647.20306641 1680.70028809 -647.20306641 1680.70028809 -648.2199707 1679.80938721 C-659.65630895 1669.73644622 -670.60299122 1659.20640398 -681.39379883 1648.44854736 C-681.88879883 1647.9562262 -682.38379883 1647.46390503 -682.89379883 1646.95666504 C-688.61506988 1641.25893146 -694.15736578 1635.4725878 -699.39379883 1629.32354736 C-700.43884903 1628.13184049 -701.48570641 1626.94171581 -702.53442383 1625.75323486 C-709.23684557 1618.10838489 -715.72370491 1610.34684445 -721.90112305 1602.27130127 C-722.93192692 1600.92623203 -723.96773313 1599.58498682 -725.00756836 1598.24688721 C-742.08568886 1576.2515218 -757.5127154 1552.96131525 -771.07299805 1528.63897705 C-771.89634362 1527.19561116 -772.75249545 1525.76989184 -773.65600586 1524.37530518 C-776.45034722 1520.0090707 -776.6866651 1517.0593733 -776.26879883 1511.94854736 C-776.09782115 1504.36605888 -777.43782387 1500.90613985 -782.39379883 1495.32354736 C-783.26308569 1494.30971866 -784.13011261 1493.29394959 -784.99536133 1492.27667236 C-786.41912241 1490.60424323 -787.8442955 1488.93350539 -789.28027344 1487.27154541 C-793.99034636 1481.76855258 -797.86367917 1475.83769132 -801.4050293 1469.51934814 C-804.75950149 1463.77144522 -808.98620206 1459.41383692 -813.76879883 1454.82354736 C-818.65994585 1450.07930759 -823.39442149 1445.30862211 -827.8347168 1440.13653564 C-829.92272072 1437.70848724 -832.09593576 1435.36315334 -834.26879883 1433.01104736 C-839.18875228 1427.60874553 -843.83924885 1422.03577559 -848.39379883 1416.32354736 C-848.81242188 1415.79922119 -849.23104492 1415.27489502 -849.66235352 1414.73468018 C-852.45611012 1411.22850528 -855.22304231 1407.70246189 -857.9699707 1404.15948486 C-858.89847293 1402.96223919 -859.8293533 1401.76683294 -860.76293945 1400.57354736 C-876.77339986 1380.05083989 -890.67059606 1358.00172468 -903.39379883 1335.32354736 C-904.19479004 1333.91685791 -904.19479004 1333.91685791 -905.01196289 1332.48175049 C-914.64216637 1315.5368023 -922.69169673 1297.98623561 -930.56945801 1280.18249512 C-931.74488718 1277.53181791 -932.93304479 1274.8868859 -934.12036133 1272.24151611 C-940.61508071 1257.69684522 -946.76801797 1243.00748387 -952.94094849 1228.32424927 C-958.95470734 1214.01988865 -965.0704898 1199.76684642 -971.38134766 1185.59088135 C-971.91526123 1184.38504395 -972.4491748 1183.17920654 -972.99926758 1181.93682861 C-973.46486084 1180.89309082 -973.9304541 1179.84935303 -974.41015625 1178.77398682 C-975.39379883 1176.32354736 -975.39379883 1176.32354736 -975.39379883 1174.32354736 C-976.38379883 1174.32354736 -977.37379883 1174.32354736 -978.39379883 1174.32354736 C-978.72379883 1175.64354736 -979.05379883 1176.96354736 -979.39379883 1178.32354736 C-981.04379883 1177.99354736 -982.69379883 1177.66354736 -984.39379883 1177.32354736 C-984.14629883 1176.14792236 -983.89879883 1174.97229736 -983.64379883 1173.76104736 C-983.16019146 1169.78855826 -983.95995675 1167.83032453 -986.15942383 1164.44073486 C-1012.09329466 1119.95922223 -1013.81063652 1046.85136001 -1016.21459961 996.01690674 C-1016.3681644 992.85188196 -1016.54343485 989.68965188 -1016.73364258 986.52667236 C-1019.2044067 943.67335438 -1016.3697702 900.88729668 -1011.39379883 858.32354736 C-1014.34107971 869.59327301 -1016.82361504 880.86639257 -1018.58129883 892.38604736 C-1018.73566406 893.3558252 -1018.8900293 894.32560303 -1019.04907227 895.32476807 C-1022.32683028 917.86913079 -1022.73969518 940.68827814 -1022.65093994 963.42761612 C-1022.64363928 965.55759475 -1022.64052497 967.68754565 -1022.63842773 969.8175354 C-1022.61296648 990.75492111 -1022.12011869 1011.64428502 -1021.25140381 1032.56530762 C-1020.07272668 1061.15039182 -1020.19457345 1089.72024913 -1020.39379883 1118.32354736 C-1021.38379883 1118.32354736 -1022.37379883 1118.32354736 -1023.39379883 1118.32354736 C-1030.82949796 1105.37202223 -1033.06394877 1090.66172749 -1035.58129883 1076.13604736 C-1035.97049836 1073.92381886 -1036.3615331 1071.71192638 -1036.7537384 1069.50022888 C-1037.10337447 1067.52369009 -1037.44832103 1065.5463234 -1037.79296875 1063.56890869 C-1038.24684161 1061.11733134 -1038.74426267 1058.72830137 -1039.39379883 1056.32354736 C-1037.41273181 1145.37250975 -1013.05262977 1234.99911121 -963.39379883 1364.32354736 C-963.12007446 1364.96682983 -962.8463501 1365.6101123 -962.56433105 1366.27288818 C-953.9312835 1386.51400246 -945.02123189 1407.38928215 -934.12670898 1426.55230713 C-933.39379883 1428.32354736 -933.39379883 1428.32354736 -934.39379883 1431.32354736 C-962.87578153 1413.91789127 -975.71569044 1376.5757212 -988.05761719 1347.29815674 C-990.71164021 1341.0594625 -993.46671238 1334.9940521 -996.76879883 1329.07354736 C-1006.10376959 1312.26321371 -1013.39070928 1293.94498157 -1020.26879883 1276.01104736 C-1020.59630127 1275.15865479 -1020.92380371 1274.30626221 -1021.26123047 1273.42803955 C-1023.39379883 1267.71658938 -1023.39379883 1267.71658938 -1023.39379883 1264.32354736 C-1024.71379883 1264.65354736 -1026.03379883 1264.98354736 -1027.39379883 1265.32354736 C-1026.93997102 1271.2591374 -1026.07897401 1276.59395175 -1024.39379883 1282.32354736 C-1024.26879883 1285.26104736 -1024.26879883 1285.26104736 -1024.39379883 1287.32354736 C-1025.38379883 1287.32354736 -1026.37379883 1287.32354736 -1027.39379883 1287.32354736 C-1060.50423783 1214.05031393 -1083.26781065 1137.66542758 -1096.01098633 1023.15557861 C-1096.10800779 1021.85389048 -1096.10800779 1021.85389048 -1096.20698929 1020.52590561 C-1097.61221598 1001.21621329 -1097.87199488 981.95444396 -1097.78052139 962.60072708 C-1097.76854147 959.89032116 -1097.76161494 957.17993846 -1097.75570679 954.46951294 C-1097.69096918 928.8183299 -1097.33908945 903.27988994 -1094.64703369 877.74755859 C-1094.37936885 875.18542097 -1094.12553057 872.62215868 -1093.8737793 870.05841064 C-1088.72788086 818.10125764 -1080.37132685 766.12634751 -1067.37426758 715.52862549 C-1066.97788086 713.9788501 -1066.97788086 713.9788501 -1066.57348633 712.39776611 C-1066.22906494 711.09198608 -1066.22906494 711.09198608 -1065.87768555 709.75982666 C-1065.37333155 707.22049845 -1065.30658337 704.90564488 -1065.39379883 702.32354736 C-1067.57705991 706.59468434 -1069.70705965 710.82557623 -1071.39379883 715.32354736 C-1072.66805127 711.50079003 -1071.93250955 709.70895032 -1070.90942383 705.82354736 C-1070.65290543 704.84125908 -1070.65290543 704.84125908 -1070.39120483 703.83912659 C-1069.81888781 701.66442676 -1069.23246526 699.49387515 -1068.64379883 697.32354736 C-1068.4422821 696.5721347 -1068.24076538 695.82072205 -1068.03314209 695.04653931 C-1047.94237908 620.26929086 -1017.82998077 547.00911743 -978.39379883 480.32354736 C-977.10939697 478.12334616 -975.82557498 475.92280639 -974.54223633 473.72198486 C-951.13481569 433.69656925 -925.12751917 394.95727901 -895.39379883 359.32354736 C-893.9765968 357.57398088 -892.55995161 355.82396324 -891.14379883 354.07354736 C-882.41198927 343.40978692 -873.28902845 333.096459 -863.91845703 322.99224854 C-862.74239788 321.70508052 -861.57933621 320.40602906 -860.421875 319.10211182 C-854.89561558 312.88408217 -849.13231776 306.9723461 -843.20629883 301.13604736 C-838.14262577 296.14800796 -833.16522878 291.19275847 -828.60839844 285.73394775 C-827.12835436 284.01531164 -825.5255707 282.56793677 -823.76879883 281.13604736 C-820.11797157 278.03773994 -816.75327604 274.72914532 -813.39379883 271.32354736 C-809.55260087 267.43952404 -805.67003665 263.69797023 -801.50708008 260.15557861 C-799.33703555 258.27433853 -797.22853532 256.33367524 -795.1237793 254.37994385 C-789.911762 249.54327759 -784.57328469 244.95493827 -779.03051758 240.49542236 C-776.46959855 238.38598387 -774.02256428 236.19467088 -771.58129883 233.94854736 C-767.20600293 229.96599456 -762.64650616 226.30536666 -757.97509766 222.68243408 C-754.17867668 219.73579191 -750.43570446 216.73560788 -746.72485352 213.6819458 C-737.62952281 206.20315915 -728.27901463 199.09840827 -718.80639648 192.10528564 C-717.29584962 190.98972493 -715.78736938 189.87135431 -714.28198242 188.74884033 C-702.19553383 179.74076508 -689.65945838 171.4165312 -677.09228516 163.10064697 C-676.4024202 162.64393112 -675.71255524 162.18721527 -675.00178528 161.71665955 C-673.65270243 160.82360782 -672.30325357 159.93110874 -670.95341492 159.03919983 C-666.29940408 155.95419543 -661.72838144 152.76845424 -657.21411133 149.48126221 C-655.39379883 148.32354736 -655.39379883 148.32354736 -653.39379883 148.32354736 C-653.56782227 147.46539429 -653.56782227 147.46539429 -653.74536133 146.58990479 C-654.05706452 143.91287535 -654.05831642 141.9451116 -653.39379883 139.32354736 C-650.51270551 136.3446686 -647.02432933 134.58127588 -643.39379883 132.63604736 C-642.35215576 132.04283691 -641.3105127 131.44962646 -640.23730469 130.83843994 C-638.04790987 129.5930132 -635.85100541 128.36070605 -633.6472168 127.14093018 C-630.61429634 125.44671887 -627.62635859 123.69698676 -624.64770508 121.90948486 C-577.93350206 93.92451942 -528.45299939 71.11042021 -477.39379883 52.32354736 C-476.68592224 52.06295532 -475.97804565 51.80236328 -475.24871826 51.53387451 C-441.50202674 39.13854588 -407.25037495 29.09238011 -372.39379883 20.32354736 C-371.73095886 20.15639221 -371.0681189 19.98923706 -370.38519287 19.8170166 C-317.96293778 6.6341277 -264.23937713 -1.33354772 -210.39379883 -5.67645264 C-209.69049438 -5.7336145 -208.98718994 -5.79077637 -208.26257324 -5.84967041 C-138.82668913 -11.43533018 -69.05038494 -8.58119476 0 0 Z M-55.39379883 219.32354736 C-56.05379883 220.64354736 -56.71379883 221.96354736 -57.39379883 223.32354736 C-56.14663086 223.63098877 -56.14663086 223.63098877 -54.87426758 223.94464111 C-53.78758789 224.21405518 -52.7009082 224.48346924 -51.58129883 224.76104736 C-49.96288086 225.16130127 -49.96288086 225.16130127 -48.31176758 225.56964111 C-46.31971453 226.08432149 -44.34568359 226.67291911 -42.39379883 227.32354736 C-41.70597522 224.96987023 -41.70597522 224.96987023 -41.39379883 222.32354736 C-42.05379883 221.33354736 -42.71379883 220.34354736 -43.39379883 219.32354736 C-44.38379883 219.32354736 -45.37379883 219.32354736 -46.39379883 219.32354736 C-46.72379883 219.98354736 -47.05379883 220.64354736 -47.39379883 221.32354736 C-48.05379883 220.66354736 -48.71379883 220.00354736 -49.39379883 219.32354736 C-52.47727709 219.15673627 -52.47727709 219.15673627 -55.39379883 219.32354736 Z M-87.39379883 222.32354736 C-87.39379883 222.65354736 -87.39379883 222.98354736 -87.39379883 223.32354736 C-85.74379883 223.32354736 -84.09379883 223.32354736 -82.39379883 223.32354736 C-82.39379883 222.99354736 -82.39379883 222.66354736 -82.39379883 222.32354736 C-84.04379883 222.32354736 -85.69379883 222.32354736 -87.39379883 222.32354736 Z M-100.58129883 223.82354736 C-101.29672852 224.10198486 -102.0121582 224.38042236 -102.74926758 224.66729736 C-103.29196289 224.88385986 -103.8346582 225.10042236 -104.39379883 225.32354736 C-103.73379883 226.64354736 -103.07379883 227.96354736 -102.39379883 229.32354736 C-107.15380308 233.01743079 -110.82104835 234.05728692 -116.76879883 234.57354736 C-117.50485352 234.65089111 -118.2409082 234.72823486 -118.99926758 234.80792236 C-120.79596901 234.99459264 -122.59473995 235.161162 -124.39379883 235.32354736 C-123.73379883 232.35354736 -123.07379883 229.38354736 -122.39379883 226.32354736 C-123.63129883 226.34417236 -124.86879883 226.36479736 -126.14379883 226.38604736 C-129.11185772 226.39123628 -131.52091712 226.04176779 -134.39379883 225.32354736 C-139.54170019 224.94224932 -139.54170019 224.94224932 -144.39379883 226.32354736 C-144.39379883 225.66354736 -144.39379883 225.00354736 -144.39379883 224.32354736 C-147.69379883 224.98354736 -150.99379883 225.64354736 -154.39379883 226.32354736 C-154.39379883 228.63354736 -154.39379883 230.94354736 -154.39379883 233.32354736 C-155.12920898 233.37905762 -155.86461914 233.43456787 -156.62231445 233.49176025 C-165.28901652 234.15161749 -173.95270728 234.84365473 -182.61401367 235.57086182 C-184.13372316 235.69763989 -185.65358198 235.82264041 -187.17358398 235.94586182 C-192.25211707 236.35806269 -197.32376775 236.81760939 -202.39379883 237.32354736 C-203.66352539 237.44488037 -204.93325195 237.56621338 -206.24145508 237.69122314 C-207.97202148 237.89787598 -207.97202148 237.89787598 -209.73754883 238.10870361 C-210.73979492 238.22222168 -211.74204102 238.33573975 -212.7746582 238.45269775 C-216.205816 239.59353853 -217.32899428 241.4298046 -219.39379883 244.32354736 C-221.39379883 245.26104736 -221.39379883 245.26104736 -223.39379883 245.32354736 C-224.74262291 244.68880662 -226.07846472 244.02505889 -227.39379883 243.32354736 C-228.05379883 243.65354736 -228.71379883 243.98354736 -229.39379883 244.32354736 C-228.73379883 242.34354736 -228.07379883 240.36354736 -227.39379883 238.32354736 C-229.21222959 237.57626736 -229.21222959 237.57626736 -231.39379883 237.32354736 C-233.20270918 238.34566346 -233.20270918 238.34566346 -234.89379883 239.94854736 C-246.56529656 249.22975681 -261.80461011 251.32161471 -276.27246094 251.94024658 C-297.86605095 253.01503459 -316.85634432 259.75732453 -336.92602539 267.38891602 C-340.076327 268.58204444 -343.23581591 269.74953399 -346.39561462 270.91722107 C-366.12461652 278.21940355 -385.72598475 285.97618092 -404.81958008 294.81964111 C-405.65166992 295.20208984 -406.48375977 295.58453857 -407.34106445 295.97857666 C-408.86018977 296.68184638 -410.37381758 297.397186 -411.88012695 298.12750244 C-415.92243622 300.00619032 -418.11518584 300.41345222 -422.39379883 299.32354736 C-424.37379883 300.31354736 -424.37379883 300.31354736 -426.39379883 301.32354736 C-426.39379883 304.29354736 -426.39379883 307.26354736 -426.39379883 310.32354736 C-428.37379883 311.31354736 -428.37379883 311.31354736 -430.39379883 312.32354736 C-432.54574253 315.55146291 -432.59466326 316.60755546 -432.39379883 320.32354736 C-435.08136838 320.3507556 -437.76865681 320.37048616 -440.45629883 320.38604736 C-441.2084668 320.39442627 -441.96063477 320.40280518 -442.7355957 320.41143799 C-447.40013001 320.43163078 -451.79303056 320.09950695 -456.39379883 319.32354736 C-457.44984139 322.25699893 -457.32653968 323.66595756 -456.70629883 326.82354736 C-456.39379883 330.32354736 -456.39379883 330.32354736 -457.89379883 332.57354736 C-463.28675946 336.34861981 -469.09418637 337.82872407 -475.39379883 339.32354736 C-476.05379883 339.65354736 -476.71379883 339.98354736 -477.39379883 340.32354736 C-475.16063097 334.01079352 -472.87167322 329.29896335 -468.39379883 324.32354736 C-468.39379883 323.66354736 -468.39379883 323.00354736 -468.39379883 322.32354736 C-467.07379883 321.66354736 -465.75379883 321.00354736 -464.39379883 320.32354736 C-467.78166494 320.32354736 -468.23352068 320.70390632 -470.76489258 322.73760986 C-471.41586914 323.24896484 -472.0668457 323.76031982 -472.73754883 324.28717041 C-473.42848633 324.8354248 -474.11942383 325.3836792 -474.83129883 325.94854736 C-490.92903466 338.34387673 -490.92903466 338.34387673 -499.64379883 338.69854736 C-505.29358755 339.64017882 -507.64870553 343.2259747 -511.39379883 347.32354736 C-517.10271008 352.6626506 -523.2613284 357.48543032 -529.39379883 362.32354736 C-527.73792361 365.49303436 -527.73792361 365.49303436 -525.01098633 366.05401611 C-523.65360352 366.28024658 -523.65360352 366.28024658 -522.26879883 366.51104736 C-521.3587207 366.66960205 -520.44864258 366.82815674 -519.51098633 366.99151611 C-518.81231445 367.10108643 -518.11364258 367.21065674 -517.39379883 367.32354736 C-517.72379883 368.31354736 -518.05379883 369.30354736 -518.39379883 370.32354736 C-520.55395508 371.16729736 -520.55395508 371.16729736 -523.45629883 371.82354736 C-524.53782227 372.07362549 -525.6193457 372.32370361 -526.73364258 372.58135986 C-529.28952657 373.09962876 -531.82720995 373.57677619 -534.39770508 374.00323486 C-548.06375333 376.28063884 -556.39925941 380.5629227 -566.39379883 390.32354736 C-565.88708066 386.18728193 -564.88250175 384.35296696 -561.83129883 381.54620361 C-561.1171582 380.86751221 -560.40301758 380.1888208 -559.66723633 379.48956299 C-558.15355711 378.08901959 -556.63793418 376.69057396 -555.12036133 375.29425049 C-550.74328906 371.21289901 -550.74328906 371.21289901 -548.39379883 365.81964111 C-548.39379883 364.99593018 -548.39379883 364.17221924 -548.39379883 363.32354736 C-556.20443356 367.94162227 -562.78288258 373.13484089 -569.39379883 379.32354736 C-570.68094465 380.43298075 -571.97239555 381.53744582 -573.26879883 382.63604736 C-576.7978229 385.71410081 -580.13791747 388.95967541 -583.45629883 392.26104736 C-583.9388916 392.73904785 -584.42148437 393.21704834 -584.91870117 393.70953369 C-591.3680306 400.18605254 -597.20996737 407.2125518 -603.01879883 414.26104736 C-603.62071045 414.9912207 -604.22262207 415.72139404 -604.84277344 416.47369385 C-609.55059814 422.2204528 -614.08115651 428.08687693 -618.5637207 434.0100708 C-622.81212479 439.6083627 -627.20342574 445.07530229 -631.6574707 450.51080322 C-635.15124051 454.77820857 -638.57324318 459.09305422 -641.95629883 463.44854736 C-647.53687417 470.60887674 -653.42395124 477.4866303 -659.39379883 484.32354736 C-660.21879883 485.27358643 -661.04379883 486.22362549 -661.89379883 487.20245361 C-665.92588245 491.80334903 -665.92588245 491.80334903 -667.39379883 493.32354736 C-667.72379883 493.32354736 -668.05379883 493.32354736 -668.39379883 493.32354736 C-668.32161133 492.45214111 -668.24942383 491.58073486 -668.17504883 490.68292236 C-667.56668224 482.87555119 -667.26473393 475.15348436 -667.39379883 467.32354736 C-671.50063411 468.91579556 -674.07084736 471.87987721 -676.95629883 475.07354736 C-677.48223633 475.64991943 -678.00817383 476.2262915 -678.55004883 476.82012939 C-683.66233218 482.49482522 -688.34001562 488.47095934 -692.99194336 494.52325439 C-694.89878149 496.97205697 -696.86165617 499.37326985 -698.82250977 501.77886963 C-705.77652471 510.33860938 -712.17356402 519.21996506 -718.39379883 528.32354736 C-719.29074463 529.63210693 -719.29074463 529.63210693 -720.20581055 530.96710205 C-736.78511967 555.24258007 -751.86472342 580.2212335 -765.39379883 606.32354736 C-766.21291748 607.89604248 -766.21291748 607.89604248 -767.04858398 609.50030518 C-806.63727521 685.85915132 -830.52014133 769.37078371 -849.83129883 887.13604736 C-849.95113129 888.01368744 -850.07096375 888.89132751 -850.19442749 889.79556274 C-851.92583256 902.6094156 -853.24190408 915.44547738 -854.39379883 928.32354736 C-860.13257533 924.00324066 -860.13257533 924.00324066 -861.12036133 919.60479736 C-862.43221853 908.66016011 -861.13686896 897.28383178 -860.39379883 886.32354736 C-863.57862318 890.13589007 -865.84832694 893.90950758 -868.05004883 898.33526611 C-869.60509364 900.63618997 -870.91182903 901.18914042 -873.39379883 902.32354736 C-873.38856201 903.09916016 -873.3833252 903.87477295 -873.37792969 904.67388916 C-873.29285375 919.44587176 -873.33612871 934.19407664 -873.82287598 948.95895386 C-874.3542491 965.27032518 -874.53287084 981.57806206 -874.57104492 997.89785767 C-874.57778417 1000.47796771 -874.58793579 1003.05807152 -874.60180664 1005.63815308 C-874.99946956 1042.13612572 -874.99946956 1042.13612572 -866.39379883 1077.32354736 C-866.06379883 1077.32354736 -865.73379883 1077.32354736 -865.39379883 1077.32354736 C-864.53699706 1072.80331039 -863.68255785 1068.28263575 -862.83032227 1063.76153564 C-862.53995915 1062.2230009 -862.24894641 1060.6845886 -861.95727539 1059.14630127 C-861.53858044 1056.93747177 -861.12221 1054.728215 -860.70629883 1052.51885986 C-860.57505615 1051.8292215 -860.44381348 1051.13958313 -860.30859375 1050.42904663 C-859.62738 1046.9004049 -859.62738 1046.9004049 -859.39379883 1043.32354736 C-856.39379883 1044.32354736 -853.39379883 1045.32354736 -850.39379883 1046.32354736 C-849.74107421 1043.99195432 -849.09654681 1041.65856941 -848.45629883 1039.32354736 C-848.27389648 1038.67514893 -848.09149414 1038.02675049 -847.90356445 1037.35870361 C-847.63769531 1036.38223877 -847.63769531 1036.38223877 -847.36645508 1035.38604736 C-847.12294312 1034.50626221 -847.12294312 1034.50626221 -846.87451172 1033.60870361 C-845.30056212 1026.12664764 -845.26028657 1018.78234495 -845.29614258 1011.16729736 C-845.298265 1009.45298523 -845.298265 1009.45298523 -845.3004303 1007.70404053 C-845.30599858 1004.07718211 -845.31854521 1000.45038691 -845.33129883 996.82354736 C-845.33631793 994.35479826 -845.34088012 991.88604818 -845.3449707 989.41729736 C-845.35595761 983.38602603 -845.37266398 977.35479122 -845.39379883 971.32354736 C-843.702146 970.68086914 -843.702146 970.68086914 -841.97631836 970.02520752 C-838.11929651 968.68603311 -838.11929651 968.68603311 -837.07348633 965.09698486 C-836.73704102 963.2291333 -836.73704102 963.2291333 -836.39379883 961.32354736 C-832.92799431 947.24176506 -827.16210002 934.84260057 -820.64306641 921.9163208 C-819.44093425 919.42137385 -818.389758 916.90680737 -817.39379883 914.32354736 C-816.73379883 914.32354736 -816.07379883 914.32354736 -815.39379883 914.32354736 C-815.72379883 915.31354736 -816.05379883 916.30354736 -816.39379883 917.32354736 C-816.71038576 919.78141322 -816.99930875 922.23558716 -817.26879883 924.69854736 C-817.87892297 930.0451775 -818.75182127 935.15919723 -820.08129883 940.38604736 C-821.59350478 946.51846044 -821.39063333 950.33304387 -819.39379883 956.32354736 C-822.03379883 956.65354736 -824.67379883 956.98354736 -827.39379883 957.32354736 C-827.39790771 958.0654834 -827.4020166 958.80741943 -827.40625 959.57183838 C-827.58031972 978.14159623 -828.77428738 996.47077833 -830.60464478 1014.95089722 C-832.35846593 1032.70660509 -833.8989447 1050.34572215 -833.89379883 1068.19854736 C-833.89783722 1068.96436127 -833.90187561 1069.73017517 -833.90603638 1070.51919556 C-833.93317142 1081.39649264 -832.57598449 1091.67454806 -830.39379883 1102.32354736 C-827.24376905 1099.36269425 -827.24376905 1099.36269425 -826.31201172 1095.26397705 C-826.32997803 1094.432854 -826.34794434 1093.60173096 -826.36645508 1092.74542236 C-826.37870117 1091.83147705 -826.39094727 1090.91753174 -826.40356445 1089.97589111 C-826.43843827 1088.0565396 -826.47743258 1086.13725808 -826.52075195 1084.21807861 C-826.63248963 1074.84525948 -826.63248963 1074.84525948 -824.39379883 1070.32354736 C-823.40379883 1069.99354736 -822.41379883 1069.66354736 -821.39379883 1069.32354736 C-815.9593314 1089.57599599 -814.64075908 1112.15809109 -818.05395508 1132.81573486 C-818.66529112 1139.1258471 -817.08391107 1144.6802597 -815.37475586 1150.68902588 C-810.46046066 1168.16728381 -807.1150251 1185.83005192 -807.43286133 1204.02667236 C-807.45184982 1205.28108376 -807.45184982 1205.28108376 -807.47122192 1206.56083679 C-807.54451419 1210.68505034 -807.67416623 1214.79651528 -807.89233398 1218.91558838 C-808.28133568 1228.90750391 -806.68386254 1235.40360859 -801.46118164 1243.9385376 C-798.62830774 1248.57691698 -796.62807634 1253.40257448 -794.64379883 1258.44854736 C-794.02674072 1260.00883667 -794.02674072 1260.00883667 -793.3972168 1261.60064697 C-784.75949899 1283.9397391 -778.03768075 1307.00972189 -771.20629883 1329.94854736 C-766.01773515 1347.36170592 -766.01773515 1347.36170592 -760.58129883 1364.69854736 C-760.25685791 1365.7486499 -759.93241699 1366.79875244 -759.59814453 1367.88067627 C-757.55735234 1374.09667656 -754.86392788 1378.90378747 -750.9609375 1384.14923096 C-749.17336723 1386.62938376 -747.9834609 1389.07249355 -746.95629883 1391.94854736 C-746.49416992 1393.2053833 -746.49416992 1393.2053833 -746.02270508 1394.48760986 C-745.81516602 1395.09346924 -745.60762695 1395.69932861 -745.39379883 1396.32354736 C-744.97485352 1395.84272705 -744.5559082 1395.36190674 -744.12426758 1394.86651611 C-741.51161819 1392.53695289 -738.78908404 1392.64385729 -735.39379883 1392.32354736 C-734.99161133 1393.49917236 -734.99161133 1393.49917236 -734.58129883 1394.69854736 C-733.54565451 1397.60469659 -733.54565451 1397.60469659 -730.39379883 1399.32354736 C-727.26858049 1399.49053969 -727.26858049 1399.49053969 -724.39379883 1399.32354736 C-724.19836043 1402.21904239 -724.01218488 1405.11463734 -723.83129883 1408.01104736 C-723.77522461 1408.82766846 -723.71915039 1409.64428955 -723.66137695 1410.48565674 C-723.41038312 1414.61868859 -723.28252139 1418.28179018 -724.39379883 1422.32354736 C-722.59127013 1423.02549729 -722.59127013 1423.02549729 -720.39379883 1423.32354736 C-719.05192064 1422.67425147 -717.71900385 1422.00622874 -716.39379883 1421.32354736 C-714.01879883 1420.76104736 -714.01879883 1420.76104736 -711.39379883 1421.32354736 C-706.66998737 1425.14076874 -704.54220719 1429.76257202 -702.93676758 1435.50323486 C-702.55029216 1437.32554957 -702.55029216 1437.32554957 -701.39379883 1438.32354736 C-712.13920999 1437.65195917 -718.28285464 1430.79538533 -725.39379883 1423.32354736 C-726.72368836 1421.9867791 -728.05595341 1420.65235329 -729.39379883 1419.32354736 C-731.78086067 1423.2621928 -731.78086067 1423.2621928 -732.19458008 1427.71417236 C-727.58578141 1442.73211143 -707.93828306 1458.70780986 -696.45629883 1468.54620361 C-694.06915147 1470.60330977 -691.73145127 1472.71039508 -689.39379883 1474.82354736 C-687.72751286 1476.32397026 -686.06086205 1477.8239881 -684.39379883 1479.32354736 C-683.67836914 1479.96807861 -682.96293945 1480.61260986 -682.22583008 1481.27667236 C-678.12091448 1484.92901506 -673.92246059 1488.2100924 -669.39379883 1491.32354736 C-667.2286756 1489.56879674 -667.2286756 1489.56879674 -667.16333008 1487.44854736 C-667.17750977 1486.74729736 -667.19168945 1486.04604736 -667.20629883 1485.32354736 C-667.2159668 1484.27167236 -667.2159668 1484.27167236 -667.22583008 1483.19854736 C-667.2867375 1481.23298364 -667.2867375 1481.23298364 -668.39379883 1479.32354736 C-667.40379883 1478.99354736 -666.41379883 1478.66354736 -665.39379883 1478.32354736 C-665.97645508 1477.2188208 -666.55911133 1476.11409424 -667.15942383 1474.97589111 C-667.54839844 1474.2372583 -667.93737305 1473.49862549 -668.33813477 1472.73760986 C-669.22489761 1471.05561244 -670.11363957 1469.37465723 -671.00415039 1467.69464111 C-673.4724856 1463.02600984 -675.89418626 1458.3414245 -678.23754883 1453.60870361 C-684.03178396 1442.01336813 -690.39813995 1431.59014527 -698.36254883 1421.35479736 C-702.56201254 1415.86239532 -705.42762592 1411.59293149 -706.02563477 1404.48858643 C-706.77654704 1400.0727442 -709.02780617 1396.17034858 -711.01879883 1392.19854736 C-711.69386475 1390.81312744 -711.69386475 1390.81312744 -712.38256836 1389.39971924 C-714.36661796 1385.34256046 -716.39059767 1381.30820825 -718.47192383 1377.30010986 C-725.06976115 1364.53472896 -729.55961454 1352.73701728 -726.39379883 1338.32354736 C-723.3621075 1340.89913857 -722.09993582 1343.78449053 -720.50317383 1347.38995361 C-719.95255948 1348.61073203 -719.40177238 1349.83143254 -718.85083008 1351.05206299 C-718.00074717 1352.95684234 -717.15397806 1354.86299932 -716.3112793 1356.77105713 C-709.84249057 1371.93221827 -709.84249057 1371.93221827 -698.39379883 1383.32354736 C-697.73379883 1383.32354736 -697.07379883 1383.32354736 -696.39379883 1383.32354736 C-696.39379883 1383.98354736 -696.39379883 1384.64354736 -696.39379883 1385.32354736 C-697.34254883 1385.61229736 -698.29129883 1385.90104736 -699.26879883 1386.19854736 C-702.44591461 1387.09179846 -702.44591461 1387.09179846 -704.39379883 1389.32354736 C-703.60875977 1390.21815674 -702.8237207 1391.11276611 -702.01489258 1392.03448486 C-679.05095666 1418.38138634 -679.05095666 1418.38138634 -679.39379883 1434.32354736 C-679.68560923 1435.99798326 -680.00748881 1437.66835751 -680.39379883 1439.32354736 C-679.73379883 1439.65354736 -679.07379883 1439.98354736 -678.39379883 1440.32354736 C-678.06379883 1439.00354736 -677.73379883 1437.68354736 -677.39379883 1436.32354736 C-675.74379883 1436.65354736 -674.09379883 1436.98354736 -672.39379883 1437.32354736 C-672.42860352 1438.16917236 -672.4634082 1439.01479736 -672.49926758 1439.88604736 C-672.70102332 1448.34057386 -672.16518624 1454.16646624 -667.39379883 1461.32354736 C-666.21817383 1461.40604736 -665.04254883 1461.48854736 -663.83129883 1461.57354736 C-658.05587131 1462.09668391 -654.5686279 1465.5699623 -650.39379883 1469.32354736 C-649.75055664 1469.87397705 -649.10731445 1470.42440674 -648.44458008 1470.99151611 C-642.88481297 1476.06887393 -638.73781949 1482.33290768 -638.08129883 1489.94854736 C-638.18442383 1490.73229736 -638.28754883 1491.51604736 -638.39379883 1492.32354736 C-637.25491211 1492.34481689 -637.25491211 1492.34481689 -636.09301758 1492.36651611 C-628.02039064 1492.75391844 -628.02039064 1492.75391844 -625.33129883 1495.19854736 C-624.20215778 1498.96235085 -623.61498109 1502.73084571 -622.97973633 1506.60479736 C-621.63422774 1512.84795719 -618.07488805 1517.0779083 -613.39379883 1521.32354736 C-612.90266602 1521.77214111 -612.4115332 1522.22073486 -611.90551758 1522.68292236 C-608.38243181 1525.81081712 -604.6855485 1528.55209034 -600.83129883 1531.26104736 C-591.89310076 1537.69802128 -586.87912757 1544.4057064 -584.92114258 1555.37042236 C-584.50934017 1557.5402346 -584.50934017 1557.5402346 -582.39379883 1559.32354736 C-579.45765362 1559.09174643 -577.76055276 1558.59861282 -575.39379883 1556.82354736 C-573.05512233 1555.06953999 -571.24132849 1554.8106248 -568.39379883 1554.32354736 C-576.64985966 1534.85818299 -576.64985966 1534.85818299 -592.39379883 1521.32354736 C-593.05379883 1521.32354736 -593.71379883 1521.32354736 -594.39379883 1521.32354736 C-594.39379883 1519.34354736 -594.39379883 1517.36354736 -594.39379883 1515.32354736 C-593.52754883 1515.65354736 -592.66129883 1515.98354736 -591.76879883 1516.32354736 C-588.43661608 1517.31086077 -585.84220345 1517.48775711 -582.39379883 1517.32354736 C-581.5302126 1515.5421299 -581.5302126 1515.5421299 -581.39379883 1513.32354736 C-584.16119372 1510.02777159 -587.15191407 1508.20206 -590.95629883 1506.26104736 C-594.30776839 1504.54665927 -596.77774635 1503.00321206 -599.39379883 1500.32354736 C-600.05379883 1500.32354736 -600.71379883 1500.32354736 -601.39379883 1500.32354736 C-601.43634239 1502.32309482 -601.43460666 1504.32396373 -601.39379883 1506.32354736 C-600.32734768 1507.61988357 -600.32734768 1507.61988357 -597.83129883 1507.38604736 C-597.02692383 1507.36542236 -596.22254883 1507.34479736 -595.39379883 1507.32354736 C-595.72379883 1508.31354736 -596.05379883 1509.30354736 -596.39379883 1510.32354736 C-599.60529151 1510.32354736 -601.72713636 1509.88555099 -604.21020508 1507.79229736 C-609.06455097 1502.50808499 -613.04849114 1496.5535666 -613.64379883 1489.26104736 C-613.56129883 1488.62167236 -613.47879883 1487.98229736 -613.39379883 1487.32354736 C-607.76879883 1487.07354736 -607.76879883 1487.07354736 -604.39379883 1489.32354736 C-608.57818251 1480.25404589 -616.73773046 1474.35966595 -624.39379883 1468.32354736 C-638.44724124 1457.1543514 -650.54443454 1446.67713878 -652.83129883 1427.94854736 C-653.04470832 1425.74256714 -653.24205816 1423.53462564 -653.39379883 1421.32354736 C-652.57782227 1421.58651611 -652.57782227 1421.58651611 -651.74536133 1421.85479736 C-648.92619321 1422.41675778 -646.61902818 1422.16157995 -643.76879883 1421.82354736 C-638.61071857 1421.21508749 -638.61071857 1421.21508749 -636.39379883 1422.32354736 C-636.72379883 1426.94354736 -637.05379883 1431.56354736 -637.39379883 1436.32354736 C-635.49629883 1437.25167236 -633.59879883 1438.17979736 -631.64379883 1439.13604736 C-625.8466959 1442.1251671 -621.38947595 1445.80413168 -616.72509766 1450.32012939 C-612.04025071 1454.80577075 -606.18578667 1460.32354736 -599.39379883 1460.32354736 C-600.05379883 1461.31354736 -600.71379883 1462.30354736 -601.39379883 1463.32354736 C-601.07873256 1466.46576703 -601.07873256 1466.46576703 -600.39379883 1469.32354736 C-602.37379883 1469.98354736 -604.35379883 1470.64354736 -606.39379883 1471.32354736 C-602.32808307 1474.57611997 -597.85996667 1477.25709641 -593.08129883 1479.32354736 C-591.39379883 1480.32354736 -591.39379883 1480.32354736 -590.47973633 1482.19464111 C-589.33165314 1484.44537974 -588.17672437 1485.68022848 -586.33129883 1487.38604736 C-583.37937928 1490.24685828 -580.77539513 1493.23951253 -578.20629883 1496.44854736 C-573.29985809 1502.53756613 -568.06028222 1508.25313487 -562.68774414 1513.92852783 C-561.63636721 1515.06203119 -560.62898565 1516.23622443 -559.63598633 1517.42120361 C-555.41309382 1522.27421359 -550.20891392 1524.55282245 -544.50683594 1527.28497314 C-528.22632249 1535.15204169 -516.44889496 1548.33501978 -505.39379883 1562.32354736 C-499.03997823 1570.34719164 -491.72862964 1577.30151525 -481.39379883 1579.32354736 C-482.71379883 1582.29354736 -484.03379883 1585.26354736 -485.39379883 1588.32354736 C-484.32129883 1588.50917236 -483.24879883 1588.69479736 -482.14379883 1588.88604736 C-476.94126312 1590.15202852 -472.78206085 1592.93911576 -468.24926758 1595.70245361 C-464.94925916 1597.57591941 -462.08868665 1598.56777485 -458.39379883 1599.32354736 C-460.06046549 1600.99021403 -461.72713216 1602.6568807 -463.39379883 1604.32354736 C-462.72477539 1604.68964111 -462.05575195 1605.05573486 -461.36645508 1605.43292236 C-454.91571655 1609.06958032 -448.85177076 1613.01986371 -442.83129883 1617.32354736 C-426.81034236 1628.74970128 -411.74640554 1638.98008306 -391.39379883 1638.32354736 C-391.18754883 1639.62292236 -390.98129883 1640.92229736 -390.76879883 1642.26104736 C-389.12535841 1649.46951708 -385.45538362 1655.13529755 -379.51879883 1659.57354736 C-370.72236692 1664.87770813 -360.25015757 1666.94067887 -350.33276367 1669.14434814 C-329.21640283 1673.87726097 -329.21640283 1673.87726097 -324.78442383 1680.85870361 C-324.28426758 1681.75460205 -323.78411133 1682.65050049 -323.26879883 1683.57354736 C-321.66573065 1686.17121989 -320.5101372 1687.92940486 -317.57104492 1688.96710205 C-312.55971922 1690.02126065 -307.50049279 1690.23689399 -302.39379883 1690.32354736 C-301.66402832 1690.35867432 -300.93425781 1690.39380127 -300.18237305 1690.42999268 C-295.98910665 1690.57376181 -294.73617507 1690.60886089 -291.39379883 1687.82354736 C-290.73379883 1686.99854736 -290.07379883 1686.17354736 -289.39379883 1685.32354736 C-288.98129883 1685.69866455 -288.56879883 1686.07378174 -288.14379883 1686.46026611 C-284.27406997 1689.8894678 -280.59436112 1692.46711791 -275.89770508 1694.65948486 C-273.99886762 1696.76053618 -274.17542662 1697.70787792 -274.17114258 1700.48760986 C-274.24461914 1701.75346924 -274.3180957 1703.01932861 -274.39379883 1704.32354736 C-273.14211914 1704.34932861 -271.89043945 1704.37510986 -270.60083008 1704.40167236 C-259.97361298 1704.70560515 -249.51633406 1705.54239801 -238.98754883 1707.02667236 C-237.73911697 1707.20097778 -236.49068512 1707.3752832 -235.204422 1707.55487061 C-222.39503967 1709.39120076 -209.68312632 1711.71701185 -196.96557617 1714.09951782 C-168.21714215 1719.45822773 -139.98029021 1724.61913607 -110.64379883 1724.69854736 C-109.86125732 1724.70099457 -109.07871582 1724.70344177 -108.27246094 1724.70596313 C-99.1531093 1724.70269966 -90.35308644 1724.20686157 -81.39379883 1722.32354736 C-81.06379883 1723.31354736 -80.73379883 1724.30354736 -80.39379883 1725.32354736 C-78.22824712 1726.20684507 -78.22824712 1726.20684507 -75.64379883 1726.76104736 C-71.3084865 1727.91425278 -68.8962479 1729.52158811 -65.39379883 1732.32354736 C-62.82479557 1732.56038841 -62.82479557 1732.56038841 -60.39379883 1731.32354736 C-58.6987118 1729.68579417 -57.0288327 1728.02125753 -55.39379883 1726.32354736 C-56.61454102 1726.02061768 -57.8352832 1725.71768799 -59.09301758 1725.40557861 C-67.98033317 1723.15774358 -76.54081079 1720.7531284 -85.02270508 1717.24151611 C-87.28088468 1716.20320163 -87.28088468 1716.20320163 -89.39379883 1716.32354736 C-89.39379883 1715.66354736 -89.39379883 1715.00354736 -89.39379883 1714.32354736 C-88.54817383 1714.48854736 -87.70254883 1714.65354736 -86.83129883 1714.82354736 C-83.28394233 1715.33952649 -79.97520769 1715.3863791 -76.39379883 1715.32354736 C-71.89246815 1715.24457665 -67.8207051 1715.53880484 -63.39379883 1716.32354736 C-61.666922 1716.43226728 -59.93654266 1716.49763462 -58.20629883 1716.51104736 C-56.9475293 1716.53231689 -56.9475293 1716.53231689 -55.66333008 1716.55401611 C-53.11229425 1716.47373352 -53.11229425 1716.47373352 -50.39379883 1714.32354736 C-49.07379883 1714.32354736 -47.75379883 1714.32354736 -46.39379883 1714.32354736 C-45.73379883 1716.63354736 -45.07379883 1718.94354736 -44.39379883 1721.32354736 C-35.97330847 1720.57040766 -27.55596645 1719.78976413 -19.14379883 1718.94854736 C-17.91661133 1718.83510986 -16.68942383 1718.72167236 -15.42504883 1718.60479736 C-9.12050019 1717.96342553 -4.08017468 1717.10025084 1.60620117 1714.32354736 C4.63946861 1714.50197486 6.74458844 1714.82094987 9.37158203 1716.35333252 C13.93861107 1718.33622047 19.21533345 1717.69532913 24.12109375 1717.69415283 C26.13850164 1717.69848255 28.15363953 1717.73469524 30.1706543 1717.77276611 C38.30696123 1717.79696931 45.28609353 1717.08212273 52.60620117 1713.32354736 C53.26620117 1712.66354736 53.92620117 1712.00354736 54.60620117 1711.32354736 C54.2857872 1708.72074168 54.2857872 1708.72074168 53.60620117 1706.32354736 C52.85854492 1706.46792236 52.11088867 1706.61229736 51.34057617 1706.76104736 C50.35573242 1706.94667236 49.37088867 1707.13229736 48.35620117 1707.32354736 C47.38166992 1707.50917236 46.40713867 1707.69479736 45.40307617 1707.88604736 C42.60620117 1708.32354736 42.60620117 1708.32354736 38.60620117 1708.32354736 C38.93620117 1707.33354736 39.26620117 1706.34354736 39.60620117 1705.32354736 C39.67285493 1703.92915072 39.69158316 1702.53184862 39.66870117 1701.13604736 C39.64807617 1699.87792236 39.62745117 1698.61979736 39.60620117 1697.32354736 C52.78550028 1697.7500619 52.78550028 1697.7500619 57.60620117 1702.32354736 C59.48120117 1705.57354736 59.48120117 1705.57354736 60.60620117 1708.32354736 C63.24620117 1708.32354736 65.88620117 1708.32354736 68.60620117 1708.32354736 C68.93620117 1709.31354736 69.26620117 1710.30354736 69.60620117 1711.32354736 C74.35617029 1710.61984823 77.31151393 1707.6182346 80.60620117 1704.32354736 C79.49760742 1704.41893799 78.38901367 1704.51432861 77.24682617 1704.61260986 C75.78333034 1704.72518647 74.31978591 1704.83713261 72.85620117 1704.94854736 C72.1265918 1705.01300049 71.39698242 1705.07745361 70.64526367 1705.14385986 C66.74708381 1705.42736385 63.89974795 1705.5943612 60.60620117 1703.32354736 C62.97326641 1700.95648212 64.34464131 1700.70699061 67.56713867 1699.92120361 C68.58606201 1699.67193115 69.60498535 1699.42265869 70.65478516 1699.16583252 C71.75250244 1698.90850342 72.85021973 1698.65117432 73.98120117 1698.38604736 C75.10792236 1698.12098389 76.23464355 1697.85592041 77.39550781 1697.58282471 C114.60137848 1689.03222769 114.60137848 1689.03222769 128.15307617 1693.08526611 C132.0249385 1693.46135465 134.71212193 1691.31220977 137.91870117 1689.38604736 C158.15047447 1678.01642043 182.28957549 1672.39652082 205.21948242 1669.68292236 C207.55482786 1669.57290083 207.55482786 1669.57290083 208.60620117 1668.32354736 C215.83204387 1668.07860354 215.83204387 1668.07860354 219.29760742 1669.17510986 C224.49046495 1669.4080834 227.68374909 1666.69042573 231.85620117 1663.82354736 C232.67088867 1663.30534424 233.48557617 1662.78714111 234.32495117 1662.25323486 C239.47312619 1658.81074697 239.47312619 1658.81074697 242.15307617 1653.41729736 C242.30260742 1652.39635986 242.45213867 1651.37542236 242.60620117 1650.32354736 C244.39704023 1649.86199091 246.18893107 1649.40451532 247.98120117 1648.94854736 C248.97893555 1648.69331299 249.97666992 1648.43807861 251.00463867 1648.17510986 C252.95295049 1647.71444611 254.90890318 1647.27411868 256.88476562 1646.95147705 C263.62336886 1645.81987403 268.99820113 1643.44137191 275.04370117 1640.32354736 C285.856834 1634.93039259 296.87499459 1630.20653809 308.04544067 1625.60684204 C344.94710467 1610.55320295 344.94710467 1610.55320295 378.76147461 1589.68341064 C381.27091455 1587.83354557 383.84437959 1586.08152803 386.41870117 1584.32354736 C388.94604604 1582.55614296 391.21071724 1580.79620356 393.54370117 1578.76104736 C398.4637488 1574.84509109 404.13475628 1571.64146263 410.02416992 1569.40557861 C412.21078837 1568.55721845 413.83846371 1567.87146255 415.60620117 1566.32354736 C416.44401667 1563.82737541 416.78477516 1561.58098449 416.96166992 1558.95635986 C418.17237761 1554.01080241 421.44716386 1551.12136708 425.48901367 1548.33917236 C426.55893555 1547.75651611 427.62885742 1547.17385986 428.73120117 1546.57354736 C429.32304199 1546.24628662 429.91488281 1545.91902588 430.5246582 1545.58184814 C434.14204518 1543.59788111 437.80245861 1541.69795637 441.46557617 1539.80010986 C442.29686035 1539.36795166 443.12814453 1538.93579346 443.98461914 1538.49053955 C445.6044339 1537.65227828 447.2282642 1536.82171434 448.85668945 1536.00030518 C456.22953789 1532.20998301 463.84290376 1528.00067407 467.60620117 1520.32354736 C468.03850666 1518.02992658 468.28740954 1515.80101116 468.43041992 1513.47198486 C468.8735279 1508.05622063 468.8735279 1508.05622063 470.60620117 1506.32354736 C475.08101016 1506.14806466 479.2145409 1506.46663804 483.60620117 1507.32354736 C486.02585743 1504.32373961 487.62445556 1501.31892378 489.23120117 1497.82354736 C492.89573425 1490.37714394 497.75700829 1484.13610888 502.9230957 1477.67706299 C509.74648897 1469.13479966 515.1790486 1462.18005158 516.23120117 1451.01104736 C516.67260742 1447.91729736 516.67260742 1447.91729736 517.60620117 1445.32354736 C519.97122816 1443.68306621 522.13372401 1443.0212344 524.89135742 1442.21807861 C529.59705722 1440.66756746 532.94618796 1437.57479621 536.60620117 1434.32354736 C537.39768555 1433.62616455 538.18916992 1432.92878174 539.00463867 1432.21026611 C550.05394675 1421.84064733 557.70910897 1408.53842896 565.30200195 1395.55352783 C567.4154493 1391.93985728 569.54222053 1388.3340569 571.66918945 1384.72833252 C572.81172355 1382.79052071 573.95211975 1380.85144636 575.09008789 1378.91094971 C577.80893726 1374.28981953 580.56931761 1369.74283796 583.60620117 1365.32354736 C583.27620117 1364.66354736 582.94620117 1364.00354736 582.60620117 1363.32354736 C577.4119766 1369.43040205 572.22237787 1375.53684996 567.16870117 1381.76104736 C563.21344093 1386.62198437 559.14646647 1391.37762296 555.05444336 1396.12310791 C551.95193486 1399.72900682 548.91161594 1403.37549561 545.91870117 1407.07354736 C543.07161616 1410.58238727 540.14807565 1413.98221374 537.10620117 1417.32354736 C532.40197478 1422.49900887 527.98884308 1427.87485742 523.60620117 1433.32354736 C522.61029258 1434.5502602 521.61418863 1435.77681447 520.61791992 1437.00323486 C519.57184441 1438.29709951 518.52627555 1439.59137395 517.48120117 1440.88604736 C516.96557617 1441.52187744 516.44995117 1442.15770752 515.91870117 1442.81280518 C512.95841309 1446.50175028 510.3191298 1450.25441229 507.79370117 1454.26104736 C505.0561101 1458.21972223 505.0561101 1458.21972223 501.35620117 1459.07354736 C499.19048532 1458.64040419 497.02499021 1458.20614771 494.86010742 1457.76885986 C493.88944336 1457.58065674 492.9187793 1457.39245361 491.91870117 1457.19854736 C491.00733398 1456.98971924 490.0959668 1456.78089111 489.15698242 1456.56573486 C486.26809721 1456.29144561 485.02418498 1456.79461147 482.60620117 1458.32354736 C482.93620117 1459.31354736 483.26620117 1460.30354736 483.60620117 1461.32354736 C486.52272291 1461.49035845 486.52272291 1461.49035845 489.60620117 1461.32354736 C490.26620117 1460.66354736 490.92620117 1460.00354736 491.60620117 1459.32354736 C487.89260643 1470.32381719 477.55699537 1478.57032746 468.60620117 1485.32354736 C467.68194336 1486.03897705 466.75768555 1486.75440674 465.80541992 1487.49151611 C456.81890068 1494.36212961 447.44041076 1500.66047058 438.09936523 1507.03399658 C426.28820671 1515.11357135 415.66870286 1523.18421872 405.60620117 1533.38604736 C392.37197294 1546.6617622 392.37197294 1546.6617622 384.76635742 1546.96417236 C375.87393467 1548.44356277 366.96374768 1556.83287059 359.75830078 1561.97125244 C346.24980095 1571.59105697 335.60574671 1577.21695414 318.60620117 1576.32354736 C318.60620117 1575.66354736 318.60620117 1575.00354736 318.60620117 1574.32354736 C319.31035156 1574.05493896 320.01450195 1573.78633057 320.73999023 1573.50958252 C326.12766684 1571.28016745 331.21095473 1568.43160143 336.35620117 1565.69854736 C337.49831055 1565.10686768 338.64041992 1564.51518799 339.81713867 1563.90557861 C349.44847946 1558.77993403 357.79111655 1553.37241961 362.60620117 1543.32354736 C365.27286784 1544.6568807 367.93953451 1545.99021403 370.60620117 1547.32354736 C370.98317139 1546.91104736 371.3601416 1546.49854736 371.74853516 1546.07354736 C396.7409305 1518.80219863 396.7409305 1518.80219863 410.04370117 1517.51104736 C411.21739258 1517.47044189 411.21739258 1517.47044189 412.41479492 1517.42901611 C414.60522767 1517.32359422 416.50234123 1516.92259632 418.60620117 1516.32354736 C417.98745117 1516.09667236 417.36870117 1515.86979736 416.73120117 1515.63604736 C413.98646543 1513.9407694 413.67156463 1512.29408782 412.60620117 1509.32354736 C413.42862305 1509.29776611 414.25104492 1509.27198486 415.09838867 1509.24542236 C423.02313824 1508.8427792 431.7004987 1508.22924984 437.60620117 1502.32354736 C437.85370117 1501.16854736 438.10120117 1500.01354736 438.35620117 1498.82354736 C440.67103621 1488.91820673 447.84610224 1480.19112775 455.60620117 1473.88604736 C458.98302499 1472.12728496 461.85278692 1471.76512551 465.60620117 1471.32354736 C467.06275313 1468.41044344 466.52787401 1465.71929472 466.34838867 1462.51495361 C466.60620117 1460.32354736 466.60620117 1460.32354736 467.75854492 1458.64776611 C470.16183684 1456.92532222 472.44346501 1456.34723503 475.29370117 1455.57354736 C489.22965309 1451.11874971 494.88517407 1438.92463109 501.44775391 1426.81988525 C501.99604858 1425.82009644 501.99604858 1425.82009644 502.55541992 1424.80010986 C502.87857178 1424.20279053 503.20172363 1423.60547119 503.53466797 1422.99005127 C504.60620117 1421.32354736 504.60620117 1421.32354736 506.234375 1419.73126221 C507.83884072 1418.41242103 507.83884072 1418.41242103 507.60620117 1416.32354736 C508.16307617 1416.04639893 508.71995117 1415.76925049 509.29370117 1415.48370361 C510.88120291 1414.68727116 512.46434157 1413.88210014 514.04370117 1413.06964111 C515.31213867 1412.42188721 515.31213867 1412.42188721 516.60620117 1411.76104736 C517.45182617 1411.3266333 518.29745117 1410.89221924 519.16870117 1410.44464111 C521.60620117 1409.32354736 521.60620117 1409.32354736 523.84057617 1408.83135986 C524.42323242 1408.66378174 525.00588867 1408.49620361 525.60620117 1408.32354736 C526.90280551 1405.8332035 526.90280551 1405.8332035 527.60620117 1403.32354736 C527.1962793 1402.86464111 526.78635742 1402.40573486 526.36401367 1401.93292236 C525.82518555 1401.31932861 525.28635742 1400.70573486 524.73120117 1400.07354736 C523.93069336 1399.16862549 523.93069336 1399.16862549 523.11401367 1398.24542236 C521.62645247 1396.3493599 520.60297681 1394.51064731 519.60620117 1392.32354736 C507.36746786 1400.55111046 497.40292715 1407.7300954 490.60620117 1421.32354736 C488.62620117 1421.32354736 486.64620117 1421.32354736 484.60620117 1421.32354736 C484.73188477 1420.27553955 484.73188477 1420.27553955 484.86010742 1419.20635986 C484.96194336 1418.29628174 485.0637793 1417.38620361 485.16870117 1416.44854736 C485.27311523 1415.54362549 485.3775293 1414.63870361 485.48510742 1413.70635986 C485.80294969 1411.30701679 485.80294969 1411.30701679 484.60620117 1409.32354736 C482.15830631 1409.83552865 482.15830631 1409.83552865 479.60620117 1411.32354736 C477.79977891 1414.44155474 477.79977891 1414.44155474 476.48120117 1418.13604736 C474.79706555 1422.45562766 473.1195842 1426.41962403 470.60620117 1430.32354736 C473.54711705 1430.13939304 473.54711705 1430.13939304 476.60620117 1429.32354736 C478.04257815 1427.37191618 478.04257815 1427.37191618 478.60620117 1425.32354736 C478.27620117 1424.99354736 477.94620117 1424.66354736 477.60620117 1424.32354736 C478.59620117 1423.99354736 479.58620117 1423.66354736 480.60620117 1423.32354736 C479.22279679 1430.70170409 475.36109538 1435.36578153 469.50854492 1439.97589111 C464.3585809 1443.45091357 464.3585809 1443.45091357 461.36791992 1442.94464111 C460.78655273 1442.73968018 460.20518555 1442.53471924 459.60620117 1442.32354736 C459.23120117 1440.26104736 459.23120117 1440.26104736 459.60620117 1437.32354736 C461.39797226 1434.78782454 463.44858238 1432.55180248 465.60620117 1430.32354736 C465.27620117 1429.66354736 464.94620117 1429.00354736 464.60620117 1428.32354736 C463.09672523 1429.60412737 461.59926155 1430.89886529 460.10620117 1432.19854736 C459.27088867 1432.91784424 458.43557617 1433.63714111 457.57495117 1434.37823486 C450.24457951 1441.29517714 444.88556399 1449.78388933 439.66870117 1458.32354736 C434.88515831 1465.97925747 430.28534601 1473.16825702 423.60620117 1479.32354736 C422.9900293 1479.90878174 422.37385742 1480.49401611 421.73901367 1481.09698486 C414.97360652 1486.85179178 406.16608231 1488.71956221 397.60620117 1490.32354736 C397.81245117 1489.64292236 398.01870117 1488.96229736 398.23120117 1488.26104736 C398.70806423 1484.52562004 397.69307549 1481.90383925 396.60620117 1478.32354736 C396.41870117 1475.44854736 396.41870117 1475.44854736 396.60620117 1473.32354736 C397.60620117 1472.32354736 397.60620117 1472.32354736 400.54760742 1472.22589111 C401.74256836 1472.23749268 402.9375293 1472.24909424 404.16870117 1472.26104736 C405.36624023 1472.2700708 406.5637793 1472.27909424 407.79760742 1472.28839111 C408.72444336 1472.29999268 409.6512793 1472.31159424 410.60620117 1472.32354736 C410.99549805 1471.33096924 411.38479492 1470.33839111 411.78588867 1469.31573486 C415.09063721 1461.19172909 418.74900597 1454.05153939 424.14086914 1447.10626221 C427.59563538 1442.618218 430.60620117 1438.14043361 430.60620117 1432.32354736 C431.88495117 1432.17917236 433.16370117 1432.03479736 434.48120117 1431.88604736 C436.86313012 1431.6171199 438.45072809 1431.40128391 440.60620117 1430.32354736 C440.93620117 1431.97354736 441.26620117 1433.62354736 441.60620117 1435.32354736 C442.26620117 1435.32354736 442.92620117 1435.32354736 443.60620117 1435.32354736 C443.8253418 1434.76667236 444.04448242 1434.20979736 444.27026367 1433.63604736 C449.78106231 1420.37428805 460.65209945 1408.98328796 470.89916992 1399.08526611 C473.95931113 1395.92708834 476.67581691 1392.48981028 479.41088867 1389.05010986 C480.72210425 1387.42158945 482.07063413 1385.82057226 483.48901367 1384.28448486 C487.86828085 1379.35535455 489.86877532 1374.28013725 491.98120117 1368.13604736 C496.99428074 1353.62798657 505.06156783 1343.26493971 515.60620117 1332.32354736 C529.37272671 1318.53022534 529.37272671 1318.53022534 535.79370117 1300.88604736 C535.73182617 1300.04042236 535.66995117 1299.19479736 535.60620117 1298.32354736 C536.55495117 1298.81854736 537.50370117 1299.31354736 538.48120117 1299.82354736 C541.32898283 1301.46779105 541.32898283 1301.46779105 543.60620117 1301.32354736 C543.69256836 1300.59651611 543.77893555 1299.86948486 543.86791992 1299.12042236 C545.1794269 1289.73532655 548.32403969 1281.72927175 552.60620117 1273.32354736 C553.92620117 1274.64354736 555.24620117 1275.96354736 556.60620117 1277.32354736 C557.12827148 1276.18401611 557.6503418 1275.04448486 558.18823242 1273.87042236 C562.272872 1265.05644778 566.56507706 1256.46381357 571.35620117 1248.01104736 C578.14516718 1235.96497862 582.8208626 1224.47478423 582.66870117 1210.51104736 C582.66418945 1209.72278564 582.65967773 1208.93452393 582.6550293 1208.12237549 C582.64331429 1206.18939976 582.62538115 1204.25646344 582.60620117 1202.32354736 C583.41444336 1201.94843018 584.22268555 1201.57331299 585.05541992 1201.18682861 C593.15563911 1197.3866915 593.15563911 1197.3866915 599.60620117 1191.32354736 C600.30745117 1190.47792236 601.00870117 1189.63229736 601.73120117 1188.76104736 C606.95831499 1179.17800536 607.39007309 1167.71086071 608.3347168 1157.03448486 C609.51974246 1145.28239607 611.9381471 1135.66981752 620.60620117 1127.32354736 C621.17209961 1126.75764893 621.73799805 1126.19175049 622.32104492 1125.60870361 C622.74514648 1125.18460205 623.16924805 1124.76050049 623.60620117 1124.32354736 C623.27620117 1123.66354736 622.94620117 1123.00354736 622.60620117 1122.32354736 C622.58026015 1118.53615823 622.63447438 1114.76161168 622.7331543 1110.97589111 C622.74411133 1110.1856958 622.75506836 1109.39550049 622.76635742 1108.58135986 C622.7831958 1107.86093506 622.80003418 1107.14051025 622.81738281 1106.39825439 C622.56746381 1103.94298075 621.91280596 1102.41046637 620.60620117 1100.32354736 C618.07431469 1098.57031799 618.07431469 1098.57031799 615.60620117 1097.32354736 C616.34870117 1096.70479736 617.09120117 1096.08604736 617.85620117 1095.44854736 C620.44374699 1092.94050715 621.35098345 1090.53161451 622.48120117 1087.13604736 C624.1022695 1082.62786974 624.1022695 1082.62786974 626.41088867 1081.23370361 C628.35620117 1080.69854736 628.35620117 1080.69854736 631.60620117 1080.32354736 C631.50227051 1079.21390625 631.50227051 1079.21390625 631.39624023 1078.08184814 C630.59565136 1068.7810568 630.36854224 1059.52614118 630.35620117 1050.19854736 C630.35386475 1049.37253021 630.35152832 1048.54651306 630.34912109 1047.69546509 C630.3338199 1032.96128205 631.12813653 1018.33327282 632.10620117 1003.63604736 C633.29433276 985.58548101 633.93775332 967.60164798 633.98120117 949.51104736 C633.98869385 948.44810455 633.99618652 947.38516174 634.00390625 946.29000854 C634.11377985 927.4772668 632.84044675 909.05931924 627.18041992 891.02667236 C626.99092773 890.13464111 626.80143555 889.24260986 626.60620117 888.32354736 C627.26620117 887.66354736 627.92620117 887.00354736 628.60620117 886.32354736 C629.16257651 883.08685589 629.49843322 879.85027601 629.84838867 876.58526611 C630.70278239 872.90784984 632.06509016 871.0652724 634.60620117 868.32354736 C631.22212929 864.86747395 628.88902459 862.50048852 623.98120117 861.82354736 C620.86738748 862.2848531 618.42877833 862.9550251 615.60620117 864.32354736 C616.29842773 862.90622314 616.29842773 862.90622314 617.00463867 861.46026611 C618.99324928 856.81822736 619.58743484 852.11426315 620.23120117 847.13604736 C620.47176283 845.37150203 620.71389234 843.60716957 620.95776367 841.84307861 C621.05911621 841.07068848 621.16046875 840.29829834 621.26489258 839.50250244 C621.59438607 837.3989764 622.05624203 835.3793192 622.60620117 833.32354736 C621.7012793 832.82468018 620.79635742 832.32581299 619.86401367 831.81182861 C615.90364781 829.16654607 614.38885276 825.76204874 612.48120117 821.51104736 C611.83476147 820.12860101 611.18633498 818.74708187 610.53588867 817.36651611 C610.22482178 816.68959717 609.91375488 816.01267822 609.59326172 815.31524658 C608.61165036 813.33454277 607.48929644 811.52057214 606.30541992 809.65557861 C604.38277057 805.88541792 604.3116382 804.7752332 605.54370117 800.82354736 C605.84663086 799.80389893 606.14956055 798.78425049 606.46166992 797.73370361 C607.29182838 795.26022807 608.12709743 792.78894485 608.96948242 790.31964111 C609.19837158 789.64546143 609.42726074 788.97128174 609.66308594 788.27667236 C610.11899433 786.95086056 610.58664189 785.62901759 611.06689453 784.31182861 C612.48034537 780.37614354 612.48034537 780.37614354 611.60620117 776.32354736 C610.67807617 775.76667236 609.74995117 775.20979736 608.79370117 774.63604736 C604.72154782 771.68174003 603.57168447 768.83033916 601.60620117 764.32354736 C600.76398562 762.54699893 599.90953142 760.77620724 599.04370117 759.01104736 C598.65053711 758.18991455 598.25737305 757.36878174 597.85229492 756.52276611 C596.62087656 754.34944781 595.56744979 752.8655978 593.60620117 751.32354736 C592.61620117 751.32354736 591.62620117 751.32354736 590.60620117 751.32354736 C590.60620117 750.66354736 590.60620117 750.00354736 590.60620117 749.32354736 C591.92620117 748.99354736 593.24620117 748.66354736 594.60620117 748.32354736 C594.27620117 745.02354736 593.94620117 741.72354736 593.60620117 738.32354736 C595.25620117 737.33354736 596.90620117 736.34354736 598.60620117 735.32354736 C595.62342031 733.26719381 595.62342031 733.26719381 592.35620117 731.57354736 C581.69026195 723.59086329 579.53660162 707.58597554 576.53417969 695.425354 C572.55194332 679.35667055 572.55194332 679.35667055 564.48120117 665.07354736 C563.48733398 663.73550049 563.48733398 663.73550049 562.47338867 662.37042236 C560.68907263 660.08019263 560.68907263 660.08019263 557.60620117 659.32354736 C557.60620117 658.66354736 557.60620117 658.00354736 557.60620117 657.32354736 C561.09529168 657.14871276 563.60870722 657.46963514 566.60620117 659.32354736 C568.11446523 662.55292052 569.14396343 665.56439879 570.02099609 669.00152588 C570.47960033 670.79484457 571.03647214 672.5623777 571.60620117 674.32354736 C572.59620117 674.65354736 573.58620117 674.98354736 574.60620117 675.32354736 C576.37904186 666.0932138 574.40013804 660.480621 569.35620117 652.76104736 C568.77870117 651.95667236 568.20120117 651.15229736 567.60620117 650.32354736 C568.92620117 650.32354736 570.24620117 650.32354736 571.60620117 650.32354736 C571.35870117 649.55010986 571.35870117 649.55010986 571.10620117 648.76104736 C570.32178918 644.93703891 569.82765831 640.8806331 571.60620117 637.32354736 C566.40118069 634.37256144 566.40118069 634.37256144 560.60620117 634.32354736 C558.2924297 636.21938846 558.2924297 636.21938846 556.60620117 638.32354736 C557.23628247 632.77883192 557.23628247 632.77883192 559.23120117 630.32354736 C560.95320292 628.27778573 560.95320292 628.27778573 560.29370117 625.07354736 C560.06682617 624.16604736 559.83995117 623.25854736 559.60620117 622.32354736 C557.95620117 621.99354736 556.30620117 621.66354736 554.60620117 621.32354736 C553.60062507 622.77804137 552.60189683 624.2372718 551.60620117 625.69854736 C551.04932617 626.51065674 550.49245117 627.32276611 549.91870117 628.15948486 C548.43334273 630.18672923 548.43334273 630.18672923 548.60620117 632.32354736 C547.94620117 632.32354736 547.28620117 632.32354736 546.60620117 632.32354736 C545.64415029 625.94996025 545.4996454 619.76425207 545.60620117 613.32354736 C547.91620117 612.66354736 550.22620117 612.00354736 552.60620117 611.32354736 C549.69680438 607.98312882 547.96018151 606.92409638 543.60620117 606.32354736 C541.66969099 606.25821301 539.73117256 606.23770433 537.79370117 606.26104736 C536.3299707 606.27458252 536.3299707 606.27458252 534.83666992 606.28839111 C534.10061523 606.29999268 533.36456055 606.31159424 532.60620117 606.32354736 C532.48120117 598.57354736 532.48120117 598.57354736 533.60620117 596.32354736 C535.77494369 596.82958728 537.60587744 597.3233855 539.60620117 598.32354736 C537.55188833 585.21844821 530.727899 575.69821579 521.13745117 566.81182861 C519.60620117 565.32354736 519.60620117 565.32354736 518.60620117 563.32354736 C520.58620117 563.32354736 522.56620117 563.32354736 524.60620117 563.32354736 C522.95620117 561.01354736 521.30620117 558.70354736 519.60620117 556.32354736 C520.26620117 555.33354736 520.92620117 554.34354736 521.60620117 553.32354736 C520.78120117 552.45729736 519.95620117 551.59104736 519.10620117 550.69854736 C514.34484716 545.19679142 511.07874997 538.67813539 507.60620117 532.32354736 C506.61620117 532.65354736 505.62620117 532.98354736 504.60620117 533.32354736 C504.35612305 532.63905518 504.10604492 531.95456299 503.84838867 531.24932861 C494.73927169 509.79420717 477.12948965 491.2963789 461.60620117 474.32354736 C460.75413086 473.39026611 459.90206055 472.45698486 459.02416992 471.49542236 C455.21830073 467.33356902 451.40824487 463.17641716 447.55541992 459.05792236 C441.29193931 452.3509567 435.33391673 445.49986986 429.60620117 438.32354736 C428.62673581 437.12350896 427.64620444 435.92434009 426.66479492 434.72589111 C425.62368877 433.44654632 424.58333364 432.16659 423.54370117 430.88604736 C422.77050537 429.93858643 422.77050537 429.93858643 421.98168945 428.97198486 C419.58667661 425.98989153 417.35522889 423.03344488 415.41479492 419.73370361 C412.37753856 413.93104203 412.37753856 413.93104203 407.17651367 410.53839111 C404.61085289 410.35431986 404.61085289 410.35431986 402.05541992 410.42510986 C396.19306634 410.18201386 391.9047481 405.87685442 388.10620117 401.76104736 C384.57824805 397.53552169 381.67527626 392.93579438 378.79370117 388.25323486 C374.15861978 382.04553657 367.98408532 378.08760721 361.41870117 374.13604736 C360.02837354 373.29004006 358.63901951 372.44243028 357.25073242 371.59307861 C356.61055176 371.20305664 355.97037109 370.81303467 355.31079102 370.41119385 C353.60620117 369.32354736 353.60620117 369.32354736 351.32104492 367.53448486 C348.79626357 365.75160965 346.6052746 366.11906508 343.60620117 366.32354736 C343.36901367 365.57460205 343.13182617 364.82565674 342.88745117 364.05401611 C336.64426351 350.74917412 310.43514151 342.1331589 297.92001343 335.8057251 C296.46462519 335.06953886 295.01037166 334.33110494 293.55728149 333.59039307 C291.49701574 332.54241569 289.43148294 331.50566398 287.36401367 330.47198486 C286.74178421 330.15373749 286.11955475 329.83549011 285.47846985 329.50759888 C282.16908456 327.87007397 280.39890858 327.32354736 276.60620117 327.32354736 C276.60620117 326.33354736 276.60620117 325.34354736 276.60620117 324.32354736 C206.24340149 290.43879451 132.80189593 267.13256034 56.60620117 250.32354736 C57.60620117 247.32354736 57.60620117 247.32354736 60.54370117 245.63604736 C69.36865967 242.3112133 78.25658667 244.90215831 87.09350586 246.987854 C87.89046875 247.17210937 88.68743164 247.35636475 89.50854492 247.54620361 C90.5835022 247.80542603 90.5835022 247.80542603 91.68017578 248.06988525 C93.821574 248.49475336 93.821574 248.49475336 96.60620117 247.32354736 C95.44991211 246.57911377 95.44991211 246.57911377 94.27026367 245.81964111 C93.26737305 245.14030518 92.26448242 244.46096924 91.23120117 243.76104736 C90.2334668 243.0997583 89.23573242 242.43846924 88.20776367 241.75714111 C85.60620117 239.32354736 85.60620117 239.32354736 83.60620117 232.32354736 C75.68620117 231.33354736 75.68620117 231.33354736 67.60620117 230.32354736 C66.94620117 232.30354736 66.28620117 234.28354736 65.60620117 236.32354736 C62.23120117 236.44854736 62.23120117 236.44854736 58.60620117 236.32354736 C56.60620117 234.32354736 56.60620117 234.32354736 55.60620117 230.32354736 C46.20120117 229.33354736 46.20120117 229.33354736 36.60620117 228.32354736 C37.38259437 231.39808296 37.38259437 231.39808296 39.60620117 233.32354736 C36.30620117 234.64354736 33.00620117 235.96354736 29.60620117 237.32354736 C29.93620117 237.98354736 30.26620117 238.64354736 30.60620117 239.32354736 C31.59620117 239.65354736 32.58620117 239.98354736 33.60620117 240.32354736 C19.7426027 239.82841885 4.67954202 232.93041492 -6.14379883 224.44854736 C-9.96657765 221.94903813 -11.91570422 221.46237532 -16.39379883 222.32354736 C-18.62233256 224.93631105 -19.39140439 227.31622321 -20.45629883 230.57354736 C-21.39379883 233.32354736 -21.39379883 233.32354736 -23.39379883 234.32354736 C-33.34820658 235.11982952 -42.05286371 233.5459574 -51.58129883 230.82354736 C-65.63199377 226.66605454 -65.63199377 226.66605454 -79.83129883 228.57354736 C-82.34300909 230.28886169 -84.3658277 232.06157956 -86.39379883 234.32354736 C-86.6490332 233.40122314 -86.6490332 233.40122314 -86.90942383 232.46026611 C-88.3607937 227.42341099 -88.3607937 227.42341099 -91.39379883 223.26104736 C-94.84096561 221.64518793 -97.22259871 222.50209158 -100.58129883 223.82354736 Z M3.60620117 226.32354736 C10.27725997 232.34901983 16.80292627 234.84484371 25.73510742 234.46417236 C26.35256836 234.41776611 26.9700293 234.37135986 27.60620117 234.32354736 C25.38959868 230.99864362 25.00571676 230.85848219 21.36010742 229.93682861 C20.52286133 229.72091064 19.68561523 229.50499268 18.82299805 229.28253174 C17.94708008 229.06919189 17.07116211 228.85585205 16.16870117 228.63604736 C15.29665039 228.41110596 14.42459961 228.18616455 13.52612305 227.95440674 C8.62691533 226.70776304 8.62691533 226.70776304 3.60620117 226.32354736 Z M-236.39379883 235.32354736 C-237.38379883 235.98354736 -238.37379883 236.64354736 -239.39379883 237.32354736 C-237.41379883 236.99354736 -235.43379883 236.66354736 -233.39379883 236.32354736 C-234.38379883 235.99354736 -235.37379883 235.66354736 -236.39379883 235.32354736 Z M-459.95629883 308.32354736 C-460.57182617 308.60971924 -461.18735352 308.89589111 -461.8215332 309.19073486 C-463.34641007 309.89997992 -464.87020586 310.61154843 -466.39379883 311.32354736 C-466.39379883 311.65354736 -466.39379883 311.98354736 -466.39379883 312.32354736 C-462.51695796 313.51642148 -459.47757959 314.32354736 -455.39379883 314.32354736 C-454.40379883 311.35354736 -453.41379883 308.38354736 -452.39379883 305.32354736 C-454.83696882 305.32354736 -457.82768638 307.33157263 -459.95629883 308.32354736 Z M-982.39379883 1158.32354736 C-982.72379883 1158.65354736 -983.05379883 1158.98354736 -983.39379883 1159.32354736 C-983.3044208 1160.84874012 -983.14842737 1162.37036665 -982.95629883 1163.88604736 C-982.85446289 1164.71233643 -982.75262695 1165.53862549 -982.64770508 1166.38995361 C-982.56391602 1167.02803955 -982.48012695 1167.66612549 -982.39379883 1168.32354736 C-980.26198669 1164.58067109 -980.43694458 1162.53370608 -981.39379883 1158.32354736 C-981.72379883 1158.32354736 -982.05379883 1158.32354736 -982.39379883 1158.32354736 Z M615.60620117 1314.32354736 C616.60620117 1316.32354736 616.60620117 1316.32354736 616.60620117 1316.32354736 Z M614.60620117 1316.32354736 C613.80007856 1317.48346503 613.04300545 1318.67747924 612.30541992 1319.88214111 C611.58950684 1321.03843018 611.58950684 1321.03843018 610.85913086 1322.21807861 C610.34253906 1323.0572583 609.82594727 1323.89643799 609.29370117 1324.76104736 C604.56236944 1332.38198438 599.59494283 1339.76187517 594.26513672 1346.9776001 C593.5445105 1347.96868774 593.5445105 1347.96868774 592.80932617 1348.97979736 C592.38296875 1349.55536377 591.95661133 1350.13093018 591.51733398 1350.72393799 C590.35873179 1352.45119461 590.35873179 1352.45119461 590.60620117 1355.32354736 C591.09088867 1354.74346924 591.57557617 1354.16339111 592.07495117 1353.56573486 C593.08041992 1352.39397705 593.08041992 1352.39397705 594.10620117 1351.19854736 C594.75588867 1350.43284424 595.40557617 1349.66714111 596.07495117 1348.87823486 C598.23019442 1346.70303565 600.09139914 1345.31710396 602.61010742 1343.65167236 C607.49901387 1340.07712302 609.08814561 1335.78468738 611.04370117 1330.19854736 C611.38079102 1329.30522705 611.71788086 1328.41190674 612.06518555 1327.49151611 C613.44191562 1323.80000342 614.70635179 1320.16224908 615.60620117 1316.32354736 C615.27620117 1316.32354736 614.94620117 1316.32354736 614.60620117 1316.32354736 Z M588.60620117 1355.32354736 C587.94620117 1356.64354736 587.28620117 1357.96354736 586.60620117 1359.32354736 C587.59620117 1358.66354736 588.58620117 1358.00354736 589.60620117 1357.32354736 C589.27620117 1356.66354736 588.94620117 1356.00354736 588.60620117 1355.32354736 Z M585.60620117 1359.32354736 C584.94620117 1360.64354736 584.28620117 1361.96354736 583.60620117 1363.32354736 C584.59620117 1362.66354736 585.58620117 1362.00354736 586.60620117 1361.32354736 C586.27620117 1360.66354736 585.94620117 1360.00354736 585.60620117 1359.32354736 Z M-659.39379883 1491.32354736 C-657.1296358 1506.99393882 -651.50934985 1515.25852157 -640.39379883 1526.32354736 C-646.97900805 1526.05164195 -650.12214635 1523.6183727 -654.95629883 1519.32354736 C-660.8133635 1514.05035463 -660.8133635 1514.05035463 -668.39379883 1512.32354736 C-656.52652094 1533.75491433 -631.65401451 1548.67352871 -611.83129883 1561.76104736 C-610.82550781 1562.4303125 -609.8197168 1563.09957764 -608.78344727 1563.78912354 C-607.84919922 1564.39731934 -606.91495117 1565.00551514 -605.95239258 1565.63214111 C-605.12022217 1566.17668945 -604.28805176 1566.72123779 -603.43066406 1567.2822876 C-602.42241577 1567.79771118 -602.42241577 1567.79771118 -601.39379883 1568.32354736 C-600.73379883 1567.99354736 -600.07379883 1567.66354736 -599.39379883 1567.32354736 C-600.8102771 1565.97776611 -600.8102771 1565.97776611 -602.25537109 1564.60479736 C-605.75743922 1561.26579558 -609.22949694 1557.89695455 -612.69335938 1554.51837158 C-614.19577288 1553.06118122 -615.70616972 1551.61217484 -617.22460938 1550.17169189 C-619.40807715 1548.09757619 -621.56099128 1545.99556641 -623.71020508 1543.88604736 C-624.39345352 1543.24925049 -625.07670197 1542.61245361 -625.78065491 1541.95635986 C-630.27274273 1537.46919154 -630.27274273 1537.46919154 -630.61813354 1534.20050049 C-630.24756286 1530.92520367 -629.25655956 1527.85531927 -628.33129883 1524.69854736 C-627.41316374 1521.39326104 -627.22756101 1518.73142263 -627.39379883 1515.32354736 C-628.38379883 1514.99354736 -629.37379883 1514.66354736 -630.39379883 1514.32354736 C-632.72803416 1516.20641168 -632.72803416 1516.20641168 -632.51879883 1519.32354736 C-632.47754883 1520.31354736 -632.43629883 1521.30354736 -632.39379883 1522.32354736 C-632.39379883 1522.98354736 -632.39379883 1523.64354736 -632.39379883 1524.32354736 C-642.94642208 1516.35045424 -650.32890013 1504.96923126 -656.93286133 1493.67510986 C-657.4149707 1492.89909424 -657.89708008 1492.12307861 -658.39379883 1491.32354736 C-658.72379883 1491.32354736 -659.05379883 1491.32354736 -659.39379883 1491.32354736 Z M-554.39379883 1622.32354736 C-555.80957359 1623.50779063 -555.80957359 1623.50779063 -555.45629883 1626.88604736 C-555.43567383 1628.02042236 -555.41504883 1629.15479736 -555.39379883 1630.32354736 C-562.06046549 1628.6568807 -568.72713216 1626.99021403 -575.39379883 1625.32354736 C-574.75442383 1625.94229736 -574.11504883 1626.56104736 -573.45629883 1627.19854736 C-564.45445109 1636.2775538 -558.09861524 1643.70107077 -555.39379883 1656.32354736 C-554.11934429 1655.89671105 -552.84934001 1655.45657534 -551.58129883 1655.01104736 C-550.87360352 1654.76741455 -550.1659082 1654.52378174 -549.43676758 1654.27276611 C-547.24488956 1653.25436007 -546.06581751 1652.03389312 -544.39379883 1650.32354736 C-543.73379883 1650.32354736 -543.07379883 1650.32354736 -542.39379883 1650.32354736 C-539.34798424 1654.17560698 -538.14489377 1656.45330503 -538.39379883 1661.32354736 C-537.52239258 1661.7966333 -536.65098633 1662.26971924 -535.75317383 1662.75714111 C-526.84710441 1667.67040039 -518.83469972 1673.24596039 -510.83666992 1679.55108643 C-496.56580876 1690.98181004 -496.56580876 1690.98181004 -480.45629883 1699.38604736 C-477.11233121 1700.74072038 -475.44324295 1702.18718226 -473.20629883 1705.01104736 C-460.4749599 1720.4644543 -435.41722273 1728.34474926 -417.47924805 1736.30645752 C-401.95076282 1743.20769568 -384.60091041 1751.11643578 -372.39379883 1763.32354736 C-370.55538349 1763.53721819 -368.71598927 1763.74465629 -366.87329102 1763.9175415 C-355.52888764 1764.99905418 -346.11418314 1768.11621426 -335.68481445 1772.66925049 C-321.04123069 1779.05340212 -309.33701486 1781.83357916 -293.39379883 1781.32354736 C-294.36155981 1777.52806816 -294.36155981 1777.52806816 -296.39379883 1774.32354736 C-299.49181038 1774.26309836 -302.57386886 1774.30293214 -305.67114258 1774.36260986 C-309.38995986 1774.40644661 -312.77939393 1774.22014393 -316.39379883 1773.32354736 C-314.90879883 1768.86854736 -314.90879883 1768.86854736 -313.39379883 1764.32354736 C-322.38515962 1759.7378577 -331.45461857 1755.42069122 -340.66656494 1751.29974365 C-356.52201537 1744.19731411 -372.16608792 1736.69885734 -387.77087402 1729.06466675 C-393.60455191 1726.21323148 -399.46561257 1723.42097498 -405.33129883 1720.63604736 C-443.17403308 1702.59140459 -480.11396095 1683.86215257 -512.4387207 1656.94219971 C-514.98535478 1654.83378513 -517.56546283 1652.76800126 -520.14379883 1650.69854736 C-525.42560002 1646.38949799 -530.39502894 1641.77456578 -535.37426758 1637.12432861 C-538.43456692 1634.270406 -541.57508262 1631.51875518 -544.74926758 1628.79229736 C-546.32109404 1627.38848086 -547.76229026 1625.91950779 -549.20629883 1624.38604736 C-551.25650964 1621.98054093 -551.25650964 1621.98054093 -554.39379883 1622.32354736 Z " fill="#FD2A2A" transform="translate(1097.393798828125,162.67645263671875)"/>
<path d="M0 0 C2.97696896 -0.01096716 5.95377122 -0.02868922 8.93066406 -0.05255127 C40.52953628 -0.2938972 76.2012349 0.73717646 101.01220703 23.23117065 C101.75728516 23.87312378 102.50236328 24.5150769 103.27001953 25.17648315 C118.59181596 39.25176055 124.2159473 59.81466686 125.19580078 80.0163269 C125.58297107 102.0394839 120.54521798 121.64868902 105.29736328 137.9147644 C99.09512655 144.20181805 92.72874674 148.91433594 85.01220703 153.23117065 C85.5051123 153.49220581 85.99801758 153.75324097 86.50585938 154.02218628 C98.14340568 160.22525647 108.94905597 166.45250766 118.01220703 176.23117065 C118.91712891 177.12835815 118.91712891 177.12835815 119.84033203 178.04367065 C134.3907066 193.14940303 138.51707211 214.06326971 138.23095703 234.37960815 C137.51135402 256.21056451 132.3486061 277.59353105 116.79736328 293.73117065 C76.39974848 329.99270428 0.57671722 321.02234841 -48.97797012 319.36099625 C-50.97742932 319.29401782 -52.97691961 319.22796962 -54.97640991 319.16192627 C-58.77205007 319.03471348 -62.56743768 318.90175047 -66.36279297 318.7663269 C-67.50222855 318.72772552 -68.64166412 318.68912415 -69.81562805 318.64935303 C-75.92104643 318.4224904 -81.92530468 317.99336902 -87.98779297 317.23117065 C-87.98779297 313.60117065 -87.98779297 309.97117065 -87.98779297 306.23117065 C-77.48779297 303.23117065 -77.48779297 303.23117065 -72.98779297 303.23117065 C-72.94291748 302.45668579 -72.89804199 301.68220093 -72.85180664 300.88424683 C-72.67238372 297.80903189 -72.49052823 294.73396919 -72.30782032 291.65894794 C-72.22114253 290.19372377 -72.1351557 288.72845852 -72.04994488 287.26314831 C-71.54463738 278.59238537 -70.98744999 269.93318606 -70.2331543 261.28024292 C-67.5173978 229.37028667 -67.43499571 197.45959134 -67.48226929 165.46080017 C-67.48763368 161.69820205 -67.4879362 157.93562265 -67.48672342 154.17302155 C-67.47438282 110.14537942 -68.17558399 66.32131089 -72.79797363 22.49246216 C-72.97263679 20.4117241 -72.98779297 18.31922671 -72.98779297 16.23117065 C-73.81923828 16.09839722 -74.65068359 15.96562378 -75.50732422 15.8288269 C-76.59400391 15.65222534 -77.68068359 15.47562378 -78.80029297 15.29367065 C-79.87923828 15.11964722 -80.95818359 14.94562378 -82.06982422 14.7663269 C-84.98779297 14.23117065 -84.98779297 14.23117065 -87.98779297 13.23117065 C-87.98779297 9.60117065 -87.98779297 5.97117065 -87.98779297 2.23117065 C-77.65390321 1.23301085 -67.36099168 0.89040688 -56.98779297 0.66867065 C-55.58847534 0.63839783 -55.58847534 0.63839783 -54.16088867 0.60751343 C-36.10943336 0.23209973 -18.05500507 0.06482369 0 0 Z M-19.98779297 35.23117065 C-22.2881146 63.21988103 -24.40920969 91.13260232 -24.30029297 119.23117065 C-24.29747314 120.2500235 -24.29465332 121.26887634 -24.29174805 122.31860352 C-24.2794755 125.16464846 -24.25658788 128.01026737 -24.22607422 130.85617065 C-24.21852615 131.69820541 -24.21097809 132.54024017 -24.20320129 133.40779114 C-24.48909641 137.12432316 -24.48909641 137.12432316 -22.98779297 140.23117065 C2.96525371 143.50529494 36.29089418 144.67134352 58.74658203 129.0397644 C68.66658113 121.12086857 73.40477783 109.62955872 75.01220703 97.23117065 C76.2457737 79.48568836 74.66582428 63.56545702 63.69970703 48.91867065 C50.17578043 35.39474405 31.21206604 32.03803903 12.82470703 31.85617065 C11.96643311 31.84223267 11.10815918 31.82829468 10.22387695 31.81393433 C0.06313579 31.88488536 -9.96884252 33.67998191 -19.98779297 35.23117065 Z M-12.36279297 169.66867065 C-13.77177856 169.72728271 -13.77177856 169.72728271 -15.20922852 169.78707886 C-16.07201416 169.82921509 -16.9347998 169.87135132 -17.82373047 169.9147644 C-18.58218262 169.95142212 -19.34063477 169.98807983 -20.12207031 170.02584839 C-22.07842989 170.13203533 -22.07842989 170.13203533 -23.98779297 171.23117065 C-24.57406563 209.18301971 -23.20147764 246.41095879 -19.98779297 284.23117065 C-15.90547113 284.73198795 -11.82179415 285.22081589 -7.73779297 285.70773315 C-6.59826172 285.847677 -5.45873047 285.98762085 -4.28466797 286.13180542 C19.65710903 288.96298857 48.6079979 289.50082058 68.77001953 274.09835815 C69.50994141 273.48218628 70.24986328 272.8660144 71.01220703 272.23117065 C72.09115234 271.33785034 72.09115234 271.33785034 73.19189453 270.42648315 C82.73119108 261.7511229 87.37826625 249.3195081 88.17626953 236.62033081 C88.91743757 218.47097834 87.86849668 200.54147211 75.01220703 186.41867065 C52.3847177 165.53175742 16.0430852 168.47364693 -12.36279297 169.66867065 Z " fill="#000000" transform="translate(587.98779296875,963.7688293457031)"/>
<path d="M0 0 C14.89046867 12.2414776 20.94223352 30.23499057 23.35302734 48.78027344 C23.61370057 53.11840494 23.63083329 57.44298673 23.62646484 61.78808594 C23.64403485 64.3767955 23.66238235 66.96549986 23.68139648 69.55419922 C23.68879619 70.92759075 23.69596441 72.30098355 23.70291138 73.67437744 C23.85400627 101.13126067 24.85410239 128.49371179 26.41552734 155.90527344 C26.46263603 156.73445534 26.50974472 157.56363724 26.55828094 158.41794586 C27.13469336 168.54005929 27.73210668 178.66078782 28.35302734 188.78027344 C29.7589917 189.24892822 29.7589917 189.24892822 31.19335938 189.72705078 C37.27319336 191.75366211 37.27319336 191.75366211 43.35302734 193.78027344 C43.35302734 197.41027344 43.35302734 201.04027344 43.35302734 204.78027344 C14.64302734 204.78027344 -14.06697266 204.78027344 -43.64697266 204.78027344 C-44.607677 201.89816042 -44.75279149 200.081773 -44.70947266 197.09277344 C-44.70044922 196.28453125 -44.69142578 195.47628906 -44.68212891 194.64355469 C-44.66472656 193.72123047 -44.66472656 193.72123047 -44.64697266 192.78027344 C-42.28677673 191.60017547 -40.48601549 191.48259659 -37.85791016 191.24511719 C-36.91689453 191.15810547 -35.97587891 191.07109375 -35.00634766 190.98144531 C-33.52908203 190.85092773 -33.52908203 190.85092773 -32.02197266 190.71777344 C-30.53310547 190.58145508 -30.53310547 190.58145508 -29.01416016 190.44238281 C-26.55873398 190.21808908 -24.10302876 189.99754237 -21.64697266 189.78027344 C-21.67307617 188.31037964 -21.67307617 188.31037964 -21.69970703 186.81079102 C-21.79594866 178.77060492 -21.59882302 170.8106933 -20.99072266 162.79199219 C-20.89061386 161.45904366 -20.89061386 161.45904366 -20.78848267 160.09916687 C-20.7193869 159.1793251 -20.65029114 158.25948334 -20.57910156 157.31176758 C-18.88773547 134.74896307 -18.30840016 112.24480536 -18.27682495 89.62857437 C-18.27199445 87.35304081 -18.26133281 85.07759923 -18.24926758 82.80209351 C-18.23160457 79.18393192 -18.23109661 75.5661498 -18.24401474 71.94797134 C-18.24838907 69.97506939 -18.23967028 68.00215185 -18.23049927 66.02926636 C-18.32360957 54.01884093 -20.63101739 43.68852763 -29.42822266 35.02636719 C-41.42575134 25.21691238 -56.89437463 24.78189129 -71.64697266 25.78027344 C-83.97944497 27.33707438 -97.4723095 33.16563793 -107.52197266 40.53417969 C-110.64697266 42.78027344 -110.64697266 42.78027344 -112.64697266 42.78027344 C-112.63537109 43.50988281 -112.62376953 44.23949219 -112.61181641 44.99121094 C-112.56372145 50.5564848 -112.62840038 56.0600506 -112.99554443 61.61456299 C-113.79264288 73.74794044 -113.88544901 85.87438029 -113.89697266 98.03027344 C-113.90047729 99.7307785 -113.90047729 99.7307785 -113.90405273 101.46563721 C-113.92654525 130.94871953 -112.33078424 160.35372598 -110.64697266 189.78027344 C-110.02129395 189.83562256 -109.39561523 189.89097168 -108.75097656 189.94799805 C-105.92425068 190.20041243 -103.09812459 190.45901537 -100.27197266 190.71777344 C-98.79470703 190.84829102 -98.79470703 190.84829102 -97.28759766 190.98144531 C-95.87607422 191.11196289 -95.87607422 191.11196289 -94.43603516 191.24511719 C-93.56672363 191.32366943 -92.69741211 191.40222168 -91.80175781 191.4831543 C-89.64697266 191.78027344 -89.64697266 191.78027344 -87.64697266 192.78027344 C-87.64697266 196.74027344 -87.64697266 200.70027344 -87.64697266 204.78027344 C-116.68697266 204.78027344 -145.72697266 204.78027344 -175.64697266 204.78027344 C-176.61513746 200.90761424 -176.72320124 197.74415982 -176.64697266 193.78027344 C-172.942336 192.4154073 -169.28699221 191.46302684 -165.42041016 190.70996094 C-164.52499512 190.5344873 -163.62958008 190.35901367 -162.70703125 190.17822266 C-162.02721191 190.04689941 -161.34739258 189.91557617 -160.64697266 189.78027344 C-160.62715332 189.14565186 -160.60733398 188.51103027 -160.58691406 187.85717773 C-160.486422 184.72721088 -160.38006702 181.59748731 -160.27197266 178.46777344 C-160.20925171 176.64101074 -160.20925171 176.64101074 -160.14526367 174.77734375 C-159.90355514 168.21774618 -159.59425155 161.67679774 -159.13525391 155.12792969 C-155.8105402 107.18951109 -156.60168085 58.57699489 -161.64697266 10.78027344 C-162.70658203 10.5753125 -163.76619141 10.37035156 -164.85791016 10.15917969 C-166.24596088 9.88719678 -167.63398009 9.615053 -169.02197266 9.34277344 C-169.72064453 9.20806641 -170.41931641 9.07335938 -171.13916016 8.93457031 C-176.42041016 7.89355469 -176.42041016 7.89355469 -178.64697266 6.78027344 C-178.67397695 5.32204132 -178.69337052 3.86366668 -178.70947266 2.40527344 C-178.72107422 1.59316406 -178.73267578 0.78105469 -178.74462891 -0.05566406 C-178.64697266 -2.21972656 -178.64697266 -2.21972656 -177.64697266 -4.21972656 C-175.57087708 -4.64332581 -175.57087708 -4.64332581 -172.79858398 -4.88989258 C-171.2447979 -5.03498009 -171.2447979 -5.03498009 -169.65962219 -5.18299866 C-168.52751816 -5.27890793 -167.39541412 -5.3748172 -166.22900391 -5.47363281 C-165.06503586 -5.57941147 -163.90106781 -5.68519012 -162.701828 -5.79417419 C-158.95510684 -6.13235043 -155.20736144 -6.45727344 -151.45947266 -6.78222656 C-148.980882 -7.00469945 -146.50236519 -7.22799679 -144.02392578 -7.45214844 C-132.571561 -8.48051818 -121.12071065 -9.46162509 -109.64697266 -10.21972656 C-109.64697266 -2.95972656 -109.64697266 4.30027344 -109.64697266 11.78027344 C-106.46041016 9.55277344 -106.46041016 9.55277344 -103.20947266 7.28027344 C-73.83726909 -12.56001493 -30.76008646 -22.7805206 0 0 Z " fill="#000000" transform="translate(1192.64697265625,1077.2197265625)"/>
<path d="M0 0 C2.97 0 5.94 0 9 0 C13 7.625 13 7.625 13 11 C13.82089111 10.88406494 14.64178223 10.76812988 15.48754883 10.64868164 C18.58670016 10.21230124 21.68618022 9.77835115 24.78588867 9.34594727 C26.76571806 9.06904305 28.74516897 8.78943694 30.72460938 8.50976562 C67.20312996 3.43047795 109.03431928 1.61599469 140.125 24.625 C152.72665624 35.14307556 159.27083317 49.091462 162 65 C162.31990856 69.46326004 162.26064502 73.88028113 162.15234375 78.3515625 C162.12903791 80.29485971 162.10578438 82.23815822 162.08448887 84.1814785 C162.0602117 86.24330968 162.02963948 88.30497188 161.99780273 90.36669922 C161.56957368 119.23016895 162.6366357 147.84909912 164.57788086 176.64306641 C164.62411119 177.32998755 164.67034151 178.01690868 164.71797276 178.72464561 C164.93467098 181.92950893 165.15741769 185.13375116 165.39015198 188.3374939 C165.8556682 194.90647428 166.11781687 201.41441094 166 208 C167.9490625 208.185625 167.9490625 208.185625 169.9375 208.375 C174.71849952 208.89863328 179.33114101 209.86313835 184 211 C184.14285714 218.42857143 184.14285714 218.42857143 183 222 C179.4794019 222.76814183 176.0556756 223.22061459 172.46289062 223.48071289 C171.37826538 223.56072037 170.29364014 223.64072784 169.17614746 223.72315979 C168.0145813 223.80549362 166.85301514 223.88782745 165.65625 223.97265625 C163.85347595 224.1037101 163.85347595 224.1037101 162.01428223 224.2374115 C159.47593885 224.42125702 156.93748318 224.60355764 154.39892578 224.78442383 C150.51436485 225.06147548 146.63021588 225.34382301 142.74609375 225.62695312 C140.27866847 225.80500143 137.81122124 225.98274602 135.34375 226.16015625 C134.18218384 226.24451431 133.02061768 226.32887238 131.82385254 226.41578674 C130.73922729 226.49264206 129.65460205 226.56949738 128.53710938 226.64868164 C127.58622437 226.71672501 126.63533936 226.78476837 125.65563965 226.85487366 C123.10710398 226.99414694 120.55233836 227 118 227 C117.67 220.4 117.34 213.8 117 207 C115.35 208.32 113.7 209.64 112 211 C90.60831945 227.36626686 64.92050022 232.73186771 38.37060547 229.69970703 C24.31668021 227.3378292 12.93551499 221.07795965 3 211 C2.42507813 210.43539063 1.85015625 209.87078125 1.2578125 209.2890625 C-8.64596726 198.76950369 -12.24954938 184.05389334 -13 170 C-13.05285156 169.22398437 -13.10570312 168.44796875 -13.16015625 167.6484375 C-13.64726067 154.6448673 -10.04226219 141.36759432 -1.73828125 131.2421875 C26.35368771 101.69490461 81.61321115 97.57647937 120 91 C121.05435321 68.46831789 121.05435321 68.46831789 110.953125 48.9296875 C101.47741716 39.56768816 88.77663605 36.6680462 75.75 36.5 C57.4616846 36.7729286 40.00478901 42.77613554 23 49 C22.09330566 49.2781958 21.18661133 49.5563916 20.25244141 49.84301758 C17.84789453 50.77139335 17.84789453 50.77139335 17.1887207 52.95532227 C17.05856567 54.12405884 17.05856567 54.12405884 16.92578125 55.31640625 C16.76045898 56.58581055 16.76045898 56.58581055 16.59179688 57.88085938 C16.49962891 58.76580078 16.40746094 59.65074219 16.3125 60.5625 C16.10792677 62.31471415 15.89607168 64.06609863 15.67578125 65.81640625 C15.5507019 66.98345093 15.5507019 66.98345093 15.4230957 68.17407227 C15.28347412 68.77662842 15.14385254 69.37918457 15 70 C11.78548731 71.60725635 8.56387464 71.05748185 5 71 C3.52264201 54.67356587 2.05358636 38.34638328 0.8125 22 C0.72887207 20.92967529 0.64524414 19.85935059 0.55908203 18.7565918 C0.09510509 12.48492066 -0.07514292 6.28888414 0 0 Z M39.67578125 146.0078125 C33.36735525 152.73850637 32.5356393 159.44420815 32.6875 168.4609375 C33.41983055 176.75458102 37.22298645 184.04365566 43 190 C54.41432035 199.33898938 67.65029029 201.27312196 82 200 C85.94900477 199.12455798 89.38121261 197.78886573 93 196 C93.76441406 195.63777344 94.52882813 195.27554687 95.31640625 194.90234375 C101.49293287 191.73351705 106.70337285 187.44613535 112 183 C113.01956787 182.31139893 114.03913574 181.62279785 115.08959961 180.91333008 C117.64173033 178.77144653 118.45556613 177.32040573 118.86474609 174.0144043 C118.94733218 172.45229606 118.99841869 170.88830847 119.0234375 169.32421875 C119.0593399 168.48139847 119.09524231 167.63857819 119.13223267 166.7702179 C119.24015849 164.07618738 119.30785244 161.3828225 119.375 158.6875 C119.44143595 156.91852123 119.51042349 155.14963634 119.58203125 153.38085938 C119.98009776 142.92015189 120.0829505 132.4674315 120 122 C97.46073272 122 56.90707565 131.12229095 39.67578125 146.0078125 Z " fill="#000000" transform="translate(787,1059)"/>
<path d="M0 0 C0.10461452 8.9120566 -0.16706583 17.68886026 -0.875 26.5703125 C-3.98939031 69.94895587 -4.42678583 113.2914523 -4.43478072 156.76144087 C-4.43568916 161.61940702 -4.44082214 166.47733786 -4.45026362 171.33529484 C-4.52369535 209.57616597 -4.018814 247.64076869 -1.44617653 285.80996323 C-1.01103612 292.54724492 -0.93196639 299.24959677 -1 306 C-0.13197754 306.08564209 0.73604492 306.17128418 1.63037109 306.25952148 C4.84732923 306.57880275 8.06390901 306.90160321 11.28027344 307.22680664 C12.67303539 307.36689447 14.06593973 307.50557408 15.45898438 307.64282227 C17.46000351 307.84021625 19.460481 308.04307712 21.4609375 308.24609375 C22.66540527 308.36654053 23.86987305 308.4869873 25.11083984 308.61108398 C28 309 28 309 30 310 C30 313.63 30 317.26 30 321 C-1.68 321 -33.36 321 -66 321 C-66 317.37 -66 313.74 -66 310 C-56.42857143 306.71428571 -56.42857143 306.71428571 -52 306 C-51.21605815 302.42670187 -50.77684843 298.95838838 -50.52722168 295.30995178 C-50.44883057 294.17381754 -50.37043945 293.0376833 -50.28967285 291.86712074 C-50.20890503 290.62972334 -50.12813721 289.39232594 -50.04492188 288.11743164 C-49.95871582 286.80821936 -49.87250977 285.49900707 -49.78369141 284.15012169 C-49.50135271 279.79994473 -49.23274216 275.44898169 -48.96875 271.09765625 C-48.92313242 270.34698041 -48.87751484 269.59630457 -48.83051491 268.82288098 C-46.82538605 235.5697394 -46.37742623 202.3969615 -46.4857254 169.09160769 C-46.50081061 163.91456296 -46.49533613 158.73782462 -46.47851562 153.56079102 C-46.37360704 120.44274578 -46.92765892 87.47221643 -48.96875 54.41015625 C-49.0140856 53.67474192 -49.0594212 52.9393276 -49.1061306 52.18162799 C-49.4064145 47.34293884 -49.72099535 42.50537764 -50.04492188 37.66821289 C-50.16607361 35.8443402 -50.16607361 35.8443402 -50.28967285 33.9836216 C-50.36806396 32.86710402 -50.44645508 31.75058643 -50.52722168 30.60023499 C-50.59455254 29.63354417 -50.66188339 28.66685335 -50.73125458 27.67086887 C-50.99376962 25.06191929 -51.43982182 22.56004121 -52 20 C-53.05960938 19.79503906 -54.11921875 19.59007812 -55.2109375 19.37890625 C-56.59898822 19.10692334 -57.98700744 18.83477956 -59.375 18.5625 C-60.07367187 18.42779297 -60.77234375 18.29308594 -61.4921875 18.15429688 C-66.7734375 17.11328125 -66.7734375 17.11328125 -69 16 C-68.67 12.37 -68.34 8.74 -68 5 C-60.7585611 4.3428631 -53.51676853 3.689968 -46.27430248 3.04424286 C-42.91025045 2.74414542 -39.54637619 2.44229448 -36.18286133 2.13623047 C-32.30329493 1.78413054 -28.42320666 1.43836122 -24.54296875 1.09375 C-23.35293747 0.9843811 -22.16290619 0.87501221 -20.93681335 0.7623291 C-13.93586744 0.1477636 -7.02740628 -0.14000035 0 0 Z " fill="#000000" transform="translate(1348,961)"/>
<path d="M0 0 C31.35 0 62.7 0 95 0 C95 3.63 95 7.26 95 11 C94.04802734 11.09369873 93.09605469 11.18739746 92.11523438 11.28393555 C78.13517903 13.33616113 70.78834798 21.83852474 61.5 31.8125 C59.27065506 34.14469683 57.03266627 36.46835177 54.79382324 38.79142761 C53.41480421 40.22885079 52.04289301 41.67314322 50.67980957 43.12568665 C46.955795 47.07966228 43.10257285 50.72305579 38.98132324 54.25935364 C35.6549415 57.18167048 32.55453606 60.32254388 29.4375 63.46484375 C28.76074219 64.14301651 28.08398438 64.82118927 27.38671875 65.51991272 C25.25542325 67.65674305 23.12765782 69.79704823 21 71.9375 C19.54320221 73.39932123 18.08617299 74.86091187 16.62890625 76.32226562 C13.08326027 79.878854 9.54077261 83.43856016 6 87 C7.81433521 90.81179193 10.1866744 93.96575291 12.8125 97.25 C13.53457642 98.1615686 13.53457642 98.1615686 14.27124023 99.09155273 C18.54354151 104.46867699 22.88772519 109.78720167 27.23168945 115.10644531 C31.39699511 120.22062822 35.41916705 125.42627406 39.41796875 130.671875 C42.30647402 134.42704455 45.30995713 138.08585728 48.3125 141.75 C52.80150626 147.23055647 57.16372101 152.78766167 61.4375 158.4375 C66.5214841 165.15421175 71.76605852 171.71559337 77.19335938 178.15869141 C80.21644228 181.7577208 82.90053827 185.34809177 85.4375 189.3125 C89.17433887 194.33054076 95.05171788 195.15978418 100.8671875 196.34375 C104 197 104 197 105 198 C105.07226502 199.85287502 105.0838122 201.70833878 105.0625 203.5625 C105.05347656 204.57441406 105.04445313 205.58632812 105.03515625 206.62890625 C105.01775391 207.80259766 105.01775391 207.80259766 105 209 C95.95976444 209.18547847 86.92018492 209.32756263 77.87846088 209.41449738 C73.6797643 209.45622593 69.4823705 209.51280443 65.28442383 209.60351562 C61.23186169 209.69053578 57.18055106 209.7382917 53.12712669 209.75901794 C51.5820056 209.77378412 50.03695202 209.80262226 48.49236488 209.84584045 C36.44659988 210.16943595 36.44659988 210.16943595 33.05415344 207.42697144 C31.70844202 205.33182007 30.85028428 203.33640196 30 201 C29.34042907 199.76119801 28.6631602 198.5316278 27.96704102 197.31298828 C27.30975383 196.06695983 26.65545587 194.81935071 26.00390625 193.5703125 C25.64787827 192.89507538 25.29185028 192.21983826 24.92503357 191.5241394 C23.80129229 189.39260194 22.68142067 187.25907145 21.5625 185.125 C12.38896743 167.36955574 12.38896743 167.36955574 0.75 151.1875 C-0.40366803 149.7940641 -1.55599826 148.39951959 -2.70703125 147.00390625 C-3.54935303 145.98514404 -3.54935303 145.98514404 -4.40869141 144.94580078 C-7.92002535 140.65225498 -11.24875303 136.21790805 -14.61328125 131.80908203 C-17.36989856 128.21286121 -20.15489992 124.63862862 -22.9375 121.0625 C-23.53014648 120.30066406 -24.12279297 119.53882813 -24.73339844 118.75390625 C-28.98433872 113.29406843 -33.25151097 107.84717752 -37.53686523 102.41430664 C-38.69442101 100.94536949 -39.8474248 99.47284831 -41 98 C-41.58136719 97.26136719 -42.16273437 96.52273438 -42.76171875 95.76171875 C-44 94 -44 94 -44.625 91.6875 C-43.46789252 86.71193784 -39.1068162 83.79190522 -35.33398438 80.58300781 C-29.42179884 75.51242518 -23.96592147 70.04434215 -18.5 64.5 C-8.48269827 54.33897802 -8.48269827 54.33897802 -3.5859375 50.15234375 C4.71589344 43.02719981 10.02718547 32.93845094 15.703125 23.69921875 C17.7266976 20.41219294 19.83839726 17.19778387 22 14 C21.0821875 13.93941406 20.164375 13.87882812 19.21875 13.81640625 C12.781492 13.37688758 6.39064295 12.89469001 0 12 C0 8.04 0 4.08 0 0 Z " fill="#000000" transform="translate(1395,1073)"/>
</svg>
